<mxfile host="app.diagrams.net" modified="2023-08-14T09:21:37.547Z" agent="Mozilla/5.0 (Windows NT 10.0; Win64; x64) AppleWebKit/537.36 (KHTML, like Gecko) Chrome/115.0.0.0 Safari/537.36 Edg/115.0.1901.200" etag="fA8edZyQky16y21b2TzC" version="21.6.8" type="device">
  <diagram name="Page-1" id="larhhReLkaqI55j50EET">
    <mxGraphModel dx="1764" dy="2127" grid="1" gridSize="10" guides="1" tooltips="1" connect="1" arrows="1" fold="1" page="1" pageScale="1" pageWidth="850" pageHeight="1100" math="0" shadow="0">
      <root>
        <mxCell id="0" />
        <mxCell id="1" parent="0" />
        <mxCell id="mdZepBdXDWqf7ZCcDm8Q-4" value="Mulai" style="ellipse;whiteSpace=wrap;html=1;fillColor=#d5e8d4;strokeColor=#82b366;" parent="1" vertex="1">
          <mxGeometry x="30" y="290" width="90" height="50" as="geometry" />
        </mxCell>
        <mxCell id="mdZepBdXDWqf7ZCcDm8Q-6" value="" style="endArrow=classic;html=1;rounded=0;exitX=1;exitY=0.5;exitDx=0;exitDy=0;" parent="1" source="mdZepBdXDWqf7ZCcDm8Q-5" edge="1">
          <mxGeometry width="50" height="50" relative="1" as="geometry">
            <mxPoint x="280" y="360" as="sourcePoint" />
            <mxPoint x="210" y="315" as="targetPoint" />
          </mxGeometry>
        </mxCell>
        <mxCell id="mdZepBdXDWqf7ZCcDm8Q-7" value="Tujuan Aplikasi" style="rounded=1;whiteSpace=wrap;html=1;fillColor=#dae8fc;strokeColor=#6c8ebf;" parent="1" vertex="1">
          <mxGeometry x="320" y="285" width="120" height="60" as="geometry" />
        </mxCell>
        <mxCell id="mdZepBdXDWqf7ZCcDm8Q-8" value="" style="endArrow=classic;html=1;rounded=0;exitX=1;exitY=0.5;exitDx=0;exitDy=0;entryX=0;entryY=0.5;entryDx=0;entryDy=0;" parent="1" source="mdZepBdXDWqf7ZCcDm8Q-5" target="mdZepBdXDWqf7ZCcDm8Q-7" edge="1">
          <mxGeometry width="50" height="50" relative="1" as="geometry">
            <mxPoint x="390" y="360" as="sourcePoint" />
            <mxPoint x="440" y="310" as="targetPoint" />
          </mxGeometry>
        </mxCell>
        <mxCell id="mdZepBdXDWqf7ZCcDm8Q-11" value="" style="endArrow=classic;html=1;rounded=0;exitX=1;exitY=0.5;exitDx=0;exitDy=0;" parent="1" source="mdZepBdXDWqf7ZCcDm8Q-4" target="mdZepBdXDWqf7ZCcDm8Q-5" edge="1">
          <mxGeometry width="50" height="50" relative="1" as="geometry">
            <mxPoint x="120" y="315" as="sourcePoint" />
            <mxPoint x="210" y="315" as="targetPoint" />
          </mxGeometry>
        </mxCell>
        <mxCell id="mdZepBdXDWqf7ZCcDm8Q-5" value="Selamat Datang" style="rounded=1;whiteSpace=wrap;html=1;fillColor=#dae8fc;strokeColor=#6c8ebf;" parent="1" vertex="1">
          <mxGeometry x="160" y="285" width="120" height="60" as="geometry" />
        </mxCell>
        <mxCell id="mdZepBdXDWqf7ZCcDm8Q-12" value="Tutorial?" style="rhombus;whiteSpace=wrap;html=1;fillColor=#fff2cc;strokeColor=#d6b656;" parent="1" vertex="1">
          <mxGeometry x="480" y="275" width="80" height="80" as="geometry" />
        </mxCell>
        <mxCell id="mdZepBdXDWqf7ZCcDm8Q-16" value="" style="endArrow=classic;html=1;rounded=0;exitX=1;exitY=0.5;exitDx=0;exitDy=0;entryX=0;entryY=0.5;entryDx=0;entryDy=0;" parent="1" source="mdZepBdXDWqf7ZCcDm8Q-7" target="mdZepBdXDWqf7ZCcDm8Q-12" edge="1">
          <mxGeometry width="50" height="50" relative="1" as="geometry">
            <mxPoint x="290" y="325" as="sourcePoint" />
            <mxPoint x="330" y="325" as="targetPoint" />
          </mxGeometry>
        </mxCell>
        <mxCell id="mdZepBdXDWqf7ZCcDm8Q-18" value="" style="endArrow=classic;html=1;rounded=0;metaEdit=0;" parent="1" source="mdZepBdXDWqf7ZCcDm8Q-12" edge="1">
          <mxGeometry width="50" height="50" relative="1" as="geometry">
            <mxPoint x="520" y="270" as="sourcePoint" />
            <mxPoint x="520" y="240" as="targetPoint" />
          </mxGeometry>
        </mxCell>
        <mxCell id="mdZepBdXDWqf7ZCcDm8Q-19" value="ya" style="edgeLabel;html=1;align=center;verticalAlign=middle;resizable=0;points=[];" parent="mdZepBdXDWqf7ZCcDm8Q-18" vertex="1" connectable="0">
          <mxGeometry x="0.0921" y="-5" relative="1" as="geometry">
            <mxPoint x="5" y="4" as="offset" />
          </mxGeometry>
        </mxCell>
        <mxCell id="mdZepBdXDWqf7ZCcDm8Q-20" value="" style="endArrow=classic;html=1;rounded=0;exitX=1;exitY=0.5;exitDx=0;exitDy=0;" parent="1" source="mdZepBdXDWqf7ZCcDm8Q-12" edge="1">
          <mxGeometry width="50" height="50" relative="1" as="geometry">
            <mxPoint x="640" y="310" as="sourcePoint" />
            <mxPoint x="600" y="315" as="targetPoint" />
          </mxGeometry>
        </mxCell>
        <mxCell id="mdZepBdXDWqf7ZCcDm8Q-21" value="Serangkaian tutorial" style="rounded=1;whiteSpace=wrap;html=1;fillColor=#dae8fc;strokeColor=#6c8ebf;" parent="1" vertex="1">
          <mxGeometry x="460" y="180" width="120" height="60" as="geometry" />
        </mxCell>
        <mxCell id="mdZepBdXDWqf7ZCcDm8Q-22" value="" style="endArrow=classic;html=1;rounded=0;exitX=1;exitY=0.5;exitDx=0;exitDy=0;entryX=0.5;entryY=0;entryDx=0;entryDy=0;" parent="1" source="mdZepBdXDWqf7ZCcDm8Q-21" target="mdZepBdXDWqf7ZCcDm8Q-25" edge="1">
          <mxGeometry width="50" height="50" relative="1" as="geometry">
            <mxPoint x="590" y="310" as="sourcePoint" />
            <mxPoint x="640" y="280" as="targetPoint" />
            <Array as="points">
              <mxPoint x="660" y="210" />
            </Array>
          </mxGeometry>
        </mxCell>
        <mxCell id="mdZepBdXDWqf7ZCcDm8Q-24" value="Masukan Nama Anda" style="shape=parallelogram;perimeter=parallelogramPerimeter;whiteSpace=wrap;html=1;fixedSize=1;fillColor=#f5f5f5;fontColor=#333333;strokeColor=#666666;" parent="1" vertex="1">
          <mxGeometry x="760" y="280" width="140" height="60" as="geometry" />
        </mxCell>
        <mxCell id="mdZepBdXDWqf7ZCcDm8Q-25" value="Mulai pengisian form pendaftaran" style="rounded=1;whiteSpace=wrap;html=1;fillColor=#dae8fc;strokeColor=#6c8ebf;" parent="1" vertex="1">
          <mxGeometry x="600" y="280" width="120" height="60" as="geometry" />
        </mxCell>
        <mxCell id="mdZepBdXDWqf7ZCcDm8Q-27" value="" style="endArrow=classic;html=1;rounded=0;exitX=1;exitY=0.5;exitDx=0;exitDy=0;" parent="1" source="mdZepBdXDWqf7ZCcDm8Q-25" target="mdZepBdXDWqf7ZCcDm8Q-24" edge="1">
          <mxGeometry width="50" height="50" relative="1" as="geometry">
            <mxPoint x="570" y="325" as="sourcePoint" />
            <mxPoint x="780" y="310" as="targetPoint" />
          </mxGeometry>
        </mxCell>
        <mxCell id="mdZepBdXDWqf7ZCcDm8Q-28" value="Konfirmasi Nama" style="rhombus;whiteSpace=wrap;html=1;fillColor=#fff2cc;strokeColor=#d6b656;" parent="1" vertex="1">
          <mxGeometry x="930" y="270" width="80" height="80" as="geometry" />
        </mxCell>
        <mxCell id="mdZepBdXDWqf7ZCcDm8Q-29" value="" style="endArrow=classic;html=1;rounded=0;exitX=1;exitY=0.5;exitDx=0;exitDy=0;entryX=0;entryY=0.5;entryDx=0;entryDy=0;" parent="1" source="mdZepBdXDWqf7ZCcDm8Q-24" target="mdZepBdXDWqf7ZCcDm8Q-28" edge="1">
          <mxGeometry width="50" height="50" relative="1" as="geometry">
            <mxPoint x="950" y="270" as="sourcePoint" />
            <mxPoint x="1000" y="220" as="targetPoint" />
          </mxGeometry>
        </mxCell>
        <mxCell id="mdZepBdXDWqf7ZCcDm8Q-30" value="" style="endArrow=classic;html=1;rounded=0;exitX=1;exitY=0.5;exitDx=0;exitDy=0;" parent="1" source="mdZepBdXDWqf7ZCcDm8Q-28" edge="1">
          <mxGeometry width="50" height="50" relative="1" as="geometry">
            <mxPoint x="950" y="270" as="sourcePoint" />
            <mxPoint x="1050" y="310" as="targetPoint" />
          </mxGeometry>
        </mxCell>
        <mxCell id="mdZepBdXDWqf7ZCcDm8Q-32" value="Ya" style="edgeLabel;html=1;align=center;verticalAlign=middle;resizable=0;points=[];" parent="mdZepBdXDWqf7ZCcDm8Q-30" vertex="1" connectable="0">
          <mxGeometry x="0.0667" y="3" relative="1" as="geometry">
            <mxPoint as="offset" />
          </mxGeometry>
        </mxCell>
        <mxCell id="mdZepBdXDWqf7ZCcDm8Q-31" value="" style="endArrow=classic;html=1;rounded=0;exitX=0.5;exitY=1;exitDx=0;exitDy=0;entryX=0.5;entryY=1;entryDx=0;entryDy=0;" parent="1" source="mdZepBdXDWqf7ZCcDm8Q-28" target="mdZepBdXDWqf7ZCcDm8Q-24" edge="1">
          <mxGeometry width="50" height="50" relative="1" as="geometry">
            <mxPoint x="940" y="320" as="sourcePoint" />
            <mxPoint x="970" y="400" as="targetPoint" />
            <Array as="points">
              <mxPoint x="970" y="400" />
              <mxPoint x="830" y="400" />
            </Array>
          </mxGeometry>
        </mxCell>
        <mxCell id="mdZepBdXDWqf7ZCcDm8Q-33" value="Tidak" style="edgeLabel;html=1;align=center;verticalAlign=middle;resizable=0;points=[];" parent="mdZepBdXDWqf7ZCcDm8Q-31" vertex="1" connectable="0">
          <mxGeometry x="-0.0315" y="-2" relative="1" as="geometry">
            <mxPoint as="offset" />
          </mxGeometry>
        </mxCell>
        <mxCell id="mdZepBdXDWqf7ZCcDm8Q-35" value="Konfirmasi, apakah user punya rekening?" style="rhombus;whiteSpace=wrap;html=1;fillColor=#fff2cc;strokeColor=#d6b656;" parent="1" vertex="1">
          <mxGeometry x="1050" y="270" width="80" height="80" as="geometry" />
        </mxCell>
        <mxCell id="mdZepBdXDWqf7ZCcDm8Q-38" value="Selesai" style="ellipse;whiteSpace=wrap;html=1;fillColor=#f8cecc;strokeColor=#b85450;" parent="1" vertex="1">
          <mxGeometry x="1045" y="380" width="90" height="50" as="geometry" />
        </mxCell>
        <mxCell id="mdZepBdXDWqf7ZCcDm8Q-39" value="" style="endArrow=classic;html=1;rounded=0;exitX=0.5;exitY=1;exitDx=0;exitDy=0;entryX=0.5;entryY=0;entryDx=0;entryDy=0;" parent="1" source="mdZepBdXDWqf7ZCcDm8Q-35" target="mdZepBdXDWqf7ZCcDm8Q-38" edge="1">
          <mxGeometry width="50" height="50" relative="1" as="geometry">
            <mxPoint x="1090" y="430" as="sourcePoint" />
            <mxPoint x="1140" y="380" as="targetPoint" />
          </mxGeometry>
        </mxCell>
        <mxCell id="mdZepBdXDWqf7ZCcDm8Q-40" value="Tidak" style="edgeLabel;html=1;align=center;verticalAlign=middle;resizable=0;points=[];" parent="mdZepBdXDWqf7ZCcDm8Q-39" vertex="1" connectable="0">
          <mxGeometry x="-0.2" y="4" relative="1" as="geometry">
            <mxPoint y="-1" as="offset" />
          </mxGeometry>
        </mxCell>
        <mxCell id="mdZepBdXDWqf7ZCcDm8Q-41" value="" style="endArrow=classic;html=1;rounded=0;exitX=1;exitY=0.5;exitDx=0;exitDy=0;" parent="1" source="mdZepBdXDWqf7ZCcDm8Q-35" edge="1">
          <mxGeometry width="50" height="50" relative="1" as="geometry">
            <mxPoint x="1090" y="430" as="sourcePoint" />
            <mxPoint x="1170" y="310" as="targetPoint" />
          </mxGeometry>
        </mxCell>
        <mxCell id="mdZepBdXDWqf7ZCcDm8Q-42" value="Ya" style="edgeLabel;html=1;align=center;verticalAlign=middle;resizable=0;points=[];" parent="mdZepBdXDWqf7ZCcDm8Q-41" vertex="1" connectable="0">
          <mxGeometry x="0.1417" y="-2" relative="1" as="geometry">
            <mxPoint x="-3" y="-12" as="offset" />
          </mxGeometry>
        </mxCell>
        <mxCell id="mdZepBdXDWqf7ZCcDm8Q-44" value="Konfirmasi No telepon" style="rhombus;whiteSpace=wrap;html=1;fillColor=#fff2cc;strokeColor=#d6b656;" parent="1" vertex="1">
          <mxGeometry x="1170" y="270" width="80" height="80" as="geometry" />
        </mxCell>
        <mxCell id="mdZepBdXDWqf7ZCcDm8Q-46" value="Masukan no telepon" style="shape=parallelogram;perimeter=parallelogramPerimeter;whiteSpace=wrap;html=1;fixedSize=1;fillColor=#f5f5f5;fontColor=#333333;strokeColor=#666666;" parent="1" vertex="1">
          <mxGeometry x="1160" y="380" width="140" height="60" as="geometry" />
        </mxCell>
        <mxCell id="mdZepBdXDWqf7ZCcDm8Q-47" value="" style="endArrow=classic;html=1;rounded=0;exitX=0.5;exitY=1;exitDx=0;exitDy=0;entryX=0.351;entryY=-0.022;entryDx=0;entryDy=0;entryPerimeter=0;" parent="1" source="mdZepBdXDWqf7ZCcDm8Q-44" target="mdZepBdXDWqf7ZCcDm8Q-46" edge="1">
          <mxGeometry width="50" height="50" relative="1" as="geometry">
            <mxPoint x="1090" y="430" as="sourcePoint" />
            <mxPoint x="1210" y="370" as="targetPoint" />
          </mxGeometry>
        </mxCell>
        <mxCell id="mdZepBdXDWqf7ZCcDm8Q-48" value="Tidak" style="edgeLabel;html=1;align=center;verticalAlign=middle;resizable=0;points=[];" parent="mdZepBdXDWqf7ZCcDm8Q-47" vertex="1" connectable="0">
          <mxGeometry x="-0.175" y="2" relative="1" as="geometry">
            <mxPoint y="-1" as="offset" />
          </mxGeometry>
        </mxCell>
        <mxCell id="mdZepBdXDWqf7ZCcDm8Q-49" value="" style="endArrow=classic;html=1;rounded=0;exitX=0.5;exitY=1;exitDx=0;exitDy=0;" parent="1" source="mdZepBdXDWqf7ZCcDm8Q-46" edge="1">
          <mxGeometry width="50" height="50" relative="1" as="geometry">
            <mxPoint x="1090" y="430" as="sourcePoint" />
            <mxPoint x="1150" y="310" as="targetPoint" />
            <Array as="points">
              <mxPoint x="1230" y="460" />
              <mxPoint x="1150" y="460" />
            </Array>
          </mxGeometry>
        </mxCell>
        <mxCell id="mdZepBdXDWqf7ZCcDm8Q-50" value="Masukan Alamat" style="shape=parallelogram;perimeter=parallelogramPerimeter;whiteSpace=wrap;html=1;fixedSize=1;fillColor=#f5f5f5;fontColor=#333333;strokeColor=#666666;" parent="1" vertex="1">
          <mxGeometry x="1275" y="280" width="120" height="60" as="geometry" />
        </mxCell>
        <mxCell id="mdZepBdXDWqf7ZCcDm8Q-51" value="" style="endArrow=classic;html=1;rounded=0;exitX=1;exitY=0.5;exitDx=0;exitDy=0;entryX=0;entryY=0.5;entryDx=0;entryDy=0;" parent="1" source="mdZepBdXDWqf7ZCcDm8Q-44" target="mdZepBdXDWqf7ZCcDm8Q-50" edge="1">
          <mxGeometry width="50" height="50" relative="1" as="geometry">
            <mxPoint x="1240" y="260" as="sourcePoint" />
            <mxPoint x="1290" y="210" as="targetPoint" />
          </mxGeometry>
        </mxCell>
        <mxCell id="mdZepBdXDWqf7ZCcDm8Q-52" value="Ya" style="edgeLabel;html=1;align=center;verticalAlign=middle;resizable=0;points=[];" parent="mdZepBdXDWqf7ZCcDm8Q-51" vertex="1" connectable="0">
          <mxGeometry x="-0.1238" y="-3" relative="1" as="geometry">
            <mxPoint as="offset" />
          </mxGeometry>
        </mxCell>
        <mxCell id="mdZepBdXDWqf7ZCcDm8Q-53" value="Apakah Anda orang Indonesia?" style="rhombus;whiteSpace=wrap;html=1;fillColor=#fff2cc;strokeColor=#d6b656;" parent="1" vertex="1">
          <mxGeometry x="1440" y="270" width="80" height="80" as="geometry" />
        </mxCell>
        <mxCell id="mdZepBdXDWqf7ZCcDm8Q-54" value="" style="endArrow=classic;html=1;rounded=0;exitX=1;exitY=0.5;exitDx=0;exitDy=0;" parent="1" source="mdZepBdXDWqf7ZCcDm8Q-50" target="mdZepBdXDWqf7ZCcDm8Q-53" edge="1">
          <mxGeometry width="50" height="50" relative="1" as="geometry">
            <mxPoint x="1320" y="260" as="sourcePoint" />
            <mxPoint x="1370" y="210" as="targetPoint" />
          </mxGeometry>
        </mxCell>
        <mxCell id="mdZepBdXDWqf7ZCcDm8Q-55" value="" style="endArrow=classic;html=1;rounded=0;exitX=0.5;exitY=0;exitDx=0;exitDy=0;" parent="1" source="mdZepBdXDWqf7ZCcDm8Q-53" edge="1">
          <mxGeometry width="50" height="50" relative="1" as="geometry">
            <mxPoint x="1520" y="270" as="sourcePoint" />
            <mxPoint x="1480" y="230" as="targetPoint" />
          </mxGeometry>
        </mxCell>
        <mxCell id="mdZepBdXDWqf7ZCcDm8Q-61" value="Ya" style="edgeLabel;html=1;align=center;verticalAlign=middle;resizable=0;points=[];" parent="mdZepBdXDWqf7ZCcDm8Q-55" vertex="1" connectable="0">
          <mxGeometry x="-0.2302" y="2" relative="1" as="geometry">
            <mxPoint as="offset" />
          </mxGeometry>
        </mxCell>
        <mxCell id="mdZepBdXDWqf7ZCcDm8Q-56" value="Masukan NIK" style="shape=parallelogram;perimeter=parallelogramPerimeter;whiteSpace=wrap;html=1;fixedSize=1;fillColor=#f5f5f5;fontColor=#333333;strokeColor=#666666;" parent="1" vertex="1">
          <mxGeometry x="1430" y="170" width="120" height="60" as="geometry" />
        </mxCell>
        <mxCell id="mdZepBdXDWqf7ZCcDm8Q-63" value="" style="edgeStyle=orthogonalEdgeStyle;rounded=0;orthogonalLoop=1;jettySize=auto;html=1;" parent="1" source="mdZepBdXDWqf7ZCcDm8Q-57" target="mdZepBdXDWqf7ZCcDm8Q-53" edge="1">
          <mxGeometry relative="1" as="geometry" />
        </mxCell>
        <mxCell id="mdZepBdXDWqf7ZCcDm8Q-57" value="Masukan No. Kitas/Paspor" style="shape=parallelogram;perimeter=parallelogramPerimeter;whiteSpace=wrap;html=1;fixedSize=1;fillColor=#f5f5f5;fontColor=#333333;strokeColor=#666666;" parent="1" vertex="1">
          <mxGeometry x="1420" y="390" width="120" height="60" as="geometry" />
        </mxCell>
        <mxCell id="mdZepBdXDWqf7ZCcDm8Q-58" value="" style="endArrow=classic;html=1;rounded=0;exitX=0.5;exitY=1;exitDx=0;exitDy=0;entryX=0.5;entryY=0;entryDx=0;entryDy=0;" parent="1" source="mdZepBdXDWqf7ZCcDm8Q-53" target="mdZepBdXDWqf7ZCcDm8Q-57" edge="1">
          <mxGeometry width="50" height="50" relative="1" as="geometry">
            <mxPoint x="1510" y="380" as="sourcePoint" />
            <mxPoint x="1560" y="330" as="targetPoint" />
          </mxGeometry>
        </mxCell>
        <mxCell id="mdZepBdXDWqf7ZCcDm8Q-62" value="Bukan" style="edgeLabel;html=1;align=center;verticalAlign=middle;resizable=0;points=[];" parent="mdZepBdXDWqf7ZCcDm8Q-58" vertex="1" connectable="0">
          <mxGeometry x="-0.246" relative="1" as="geometry">
            <mxPoint as="offset" />
          </mxGeometry>
        </mxCell>
        <mxCell id="mdZepBdXDWqf7ZCcDm8Q-59" value="Masukan Pekerjaan anda" style="shape=parallelogram;perimeter=parallelogramPerimeter;whiteSpace=wrap;html=1;fixedSize=1;fillColor=#f5f5f5;fontColor=#333333;strokeColor=#666666;" parent="1" vertex="1">
          <mxGeometry x="1560" y="280" width="120" height="60" as="geometry" />
        </mxCell>
        <mxCell id="mdZepBdXDWqf7ZCcDm8Q-60" value="" style="endArrow=classic;html=1;rounded=0;exitX=1;exitY=0.5;exitDx=0;exitDy=0;entryX=0.5;entryY=0;entryDx=0;entryDy=0;" parent="1" source="mdZepBdXDWqf7ZCcDm8Q-56" target="mdZepBdXDWqf7ZCcDm8Q-59" edge="1">
          <mxGeometry width="50" height="50" relative="1" as="geometry">
            <mxPoint x="1540" y="320" as="sourcePoint" />
            <mxPoint x="1590" y="270" as="targetPoint" />
            <Array as="points">
              <mxPoint x="1620" y="200" />
            </Array>
          </mxGeometry>
        </mxCell>
        <mxCell id="mdZepBdXDWqf7ZCcDm8Q-64" value="" style="endArrow=classic;html=1;rounded=0;exitX=1;exitY=0.5;exitDx=0;exitDy=0;entryX=0.5;entryY=1;entryDx=0;entryDy=0;" parent="1" source="mdZepBdXDWqf7ZCcDm8Q-57" target="mdZepBdXDWqf7ZCcDm8Q-59" edge="1">
          <mxGeometry width="50" height="50" relative="1" as="geometry">
            <mxPoint x="1370" y="280" as="sourcePoint" />
            <mxPoint x="1420" y="230" as="targetPoint" />
            <Array as="points">
              <mxPoint x="1620" y="420" />
            </Array>
          </mxGeometry>
        </mxCell>
        <mxCell id="mdZepBdXDWqf7ZCcDm8Q-65" value="" style="endArrow=classic;html=1;rounded=0;" parent="1" source="mdZepBdXDWqf7ZCcDm8Q-59" edge="1">
          <mxGeometry width="50" height="50" relative="1" as="geometry">
            <mxPoint x="1680" y="370" as="sourcePoint" />
            <mxPoint x="1740" y="310" as="targetPoint" />
          </mxGeometry>
        </mxCell>
        <mxCell id="mdZepBdXDWqf7ZCcDm8Q-66" value="Siapa yang akan anda daftarkan?" style="rhombus;whiteSpace=wrap;html=1;fillColor=#fff2cc;strokeColor=#d6b656;" parent="1" vertex="1">
          <mxGeometry x="1740" y="255" width="120" height="110" as="geometry" />
        </mxCell>
        <mxCell id="mdZepBdXDWqf7ZCcDm8Q-67" value="" style="endArrow=classic;html=1;rounded=0;exitX=0.5;exitY=0;exitDx=0;exitDy=0;" parent="1" source="mdZepBdXDWqf7ZCcDm8Q-66" edge="1">
          <mxGeometry width="50" height="50" relative="1" as="geometry">
            <mxPoint x="2000" y="310" as="sourcePoint" />
            <mxPoint x="1800" y="90" as="targetPoint" />
          </mxGeometry>
        </mxCell>
        <mxCell id="mdZepBdXDWqf7ZCcDm8Q-73" value="Anak" style="edgeLabel;html=1;align=center;verticalAlign=middle;resizable=0;points=[];" parent="mdZepBdXDWqf7ZCcDm8Q-67" vertex="1" connectable="0">
          <mxGeometry x="-0.0812" y="1" relative="1" as="geometry">
            <mxPoint x="1" as="offset" />
          </mxGeometry>
        </mxCell>
        <mxCell id="mdZepBdXDWqf7ZCcDm8Q-68" value="" style="endArrow=classic;html=1;rounded=0;exitX=1;exitY=0.5;exitDx=0;exitDy=0;" parent="1" source="mdZepBdXDWqf7ZCcDm8Q-66" edge="1">
          <mxGeometry width="50" height="50" relative="1" as="geometry">
            <mxPoint x="2000" y="310" as="sourcePoint" />
            <mxPoint x="1960" y="310" as="targetPoint" />
          </mxGeometry>
        </mxCell>
        <mxCell id="mdZepBdXDWqf7ZCcDm8Q-71" value="Diri Sendiri" style="edgeLabel;html=1;align=center;verticalAlign=middle;resizable=0;points=[];" parent="mdZepBdXDWqf7ZCcDm8Q-68" vertex="1" connectable="0">
          <mxGeometry x="-0.2857" y="2" relative="1" as="geometry">
            <mxPoint x="14" as="offset" />
          </mxGeometry>
        </mxCell>
        <mxCell id="mdZepBdXDWqf7ZCcDm8Q-69" value="" style="endArrow=classic;html=1;rounded=0;exitX=0.5;exitY=1;exitDx=0;exitDy=0;entryX=0.5;entryY=0;entryDx=0;entryDy=0;" parent="1" source="mdZepBdXDWqf7ZCcDm8Q-66" edge="1" target="dw2K8p2eMYUvbzomziok-30">
          <mxGeometry width="50" height="50" relative="1" as="geometry">
            <mxPoint x="1990" y="365" as="sourcePoint" />
            <mxPoint x="1990" y="420" as="targetPoint" />
          </mxGeometry>
        </mxCell>
        <mxCell id="mdZepBdXDWqf7ZCcDm8Q-70" value="Orang lain/Saudara" style="edgeLabel;html=1;align=center;verticalAlign=middle;resizable=0;points=[];" parent="mdZepBdXDWqf7ZCcDm8Q-69" vertex="1" connectable="0">
          <mxGeometry x="-0.1524" relative="1" as="geometry">
            <mxPoint as="offset" />
          </mxGeometry>
        </mxCell>
        <mxCell id="mdZepBdXDWqf7ZCcDm8Q-76" value="Masukan Nama Saudara Anda" style="shape=parallelogram;perimeter=parallelogramPerimeter;whiteSpace=wrap;html=1;fixedSize=1;fillColor=#f5f5f5;fontColor=#333333;strokeColor=#666666;" parent="1" vertex="1">
          <mxGeometry x="1920" y="420" width="150" height="60" as="geometry" />
        </mxCell>
        <mxCell id="mdZepBdXDWqf7ZCcDm8Q-77" value="" style="endArrow=classic;html=1;rounded=0;exitX=1.002;exitY=0.531;exitDx=0;exitDy=0;entryX=0;entryY=0.5;entryDx=0;entryDy=0;exitPerimeter=0;" parent="1" source="dw2K8p2eMYUvbzomziok-30" target="mdZepBdXDWqf7ZCcDm8Q-76" edge="1">
          <mxGeometry width="50" height="50" relative="1" as="geometry">
            <mxPoint x="1900" y="450" as="sourcePoint" />
            <mxPoint x="2100" y="370" as="targetPoint" />
          </mxGeometry>
        </mxCell>
        <mxCell id="mdZepBdXDWqf7ZCcDm8Q-78" value="Masukan No Telepon Saudara Anda" style="shape=parallelogram;perimeter=parallelogramPerimeter;whiteSpace=wrap;html=1;fixedSize=1;fillColor=#f5f5f5;fontColor=#333333;strokeColor=#666666;" parent="1" vertex="1">
          <mxGeometry x="2110" y="420" width="150" height="60" as="geometry" />
        </mxCell>
        <mxCell id="mdZepBdXDWqf7ZCcDm8Q-79" value="" style="endArrow=classic;html=1;rounded=0;exitX=1;exitY=0.5;exitDx=0;exitDy=0;entryX=0;entryY=0.5;entryDx=0;entryDy=0;" parent="1" source="mdZepBdXDWqf7ZCcDm8Q-76" target="mdZepBdXDWqf7ZCcDm8Q-78" edge="1">
          <mxGeometry width="50" height="50" relative="1" as="geometry">
            <mxPoint x="2110" y="400" as="sourcePoint" />
            <mxPoint x="2160" y="350" as="targetPoint" />
          </mxGeometry>
        </mxCell>
        <mxCell id="mdZepBdXDWqf7ZCcDm8Q-80" value="Apakah Saudara Anda Orang Indonesia" style="rhombus;whiteSpace=wrap;html=1;fillColor=#fff2cc;strokeColor=#d6b656;" parent="1" vertex="1">
          <mxGeometry x="2310" y="400" width="110" height="100" as="geometry" />
        </mxCell>
        <mxCell id="mdZepBdXDWqf7ZCcDm8Q-81" value="" style="endArrow=classic;html=1;rounded=0;exitX=1;exitY=0.5;exitDx=0;exitDy=0;entryX=0;entryY=0.5;entryDx=0;entryDy=0;" parent="1" source="mdZepBdXDWqf7ZCcDm8Q-78" target="mdZepBdXDWqf7ZCcDm8Q-80" edge="1">
          <mxGeometry width="50" height="50" relative="1" as="geometry">
            <mxPoint x="2040" y="520" as="sourcePoint" />
            <mxPoint x="2090" y="470" as="targetPoint" />
          </mxGeometry>
        </mxCell>
        <mxCell id="mdZepBdXDWqf7ZCcDm8Q-82" value="Masukan NIK Saudara Anda" style="shape=parallelogram;perimeter=parallelogramPerimeter;whiteSpace=wrap;html=1;fixedSize=1;fillColor=#f5f5f5;fontColor=#333333;strokeColor=#666666;" parent="1" vertex="1">
          <mxGeometry x="2470" y="420" width="120" height="60" as="geometry" />
        </mxCell>
        <mxCell id="mdZepBdXDWqf7ZCcDm8Q-83" value="Masukan No. Kitas/Paspor Saudara Anda" style="shape=parallelogram;perimeter=parallelogramPerimeter;whiteSpace=wrap;html=1;fixedSize=1;fillColor=#f5f5f5;fontColor=#333333;strokeColor=#666666;" parent="1" vertex="1">
          <mxGeometry x="2305" y="540" width="120" height="60" as="geometry" />
        </mxCell>
        <mxCell id="mdZepBdXDWqf7ZCcDm8Q-84" value="" style="endArrow=classic;html=1;rounded=0;exitX=1;exitY=0.5;exitDx=0;exitDy=0;entryX=0;entryY=0.5;entryDx=0;entryDy=0;" parent="1" source="mdZepBdXDWqf7ZCcDm8Q-80" target="mdZepBdXDWqf7ZCcDm8Q-82" edge="1">
          <mxGeometry width="50" height="50" relative="1" as="geometry">
            <mxPoint x="1680" y="280" as="sourcePoint" />
            <mxPoint x="2365" y="350" as="targetPoint" />
          </mxGeometry>
        </mxCell>
        <mxCell id="mdZepBdXDWqf7ZCcDm8Q-85" value="Ya" style="edgeLabel;html=1;align=center;verticalAlign=middle;resizable=0;points=[];" parent="mdZepBdXDWqf7ZCcDm8Q-84" vertex="1" connectable="0">
          <mxGeometry x="-0.2302" y="2" relative="1" as="geometry">
            <mxPoint y="-8" as="offset" />
          </mxGeometry>
        </mxCell>
        <mxCell id="mdZepBdXDWqf7ZCcDm8Q-86" value="" style="endArrow=classic;html=1;rounded=0;exitX=0.5;exitY=1;exitDx=0;exitDy=0;entryX=0.507;entryY=-0.046;entryDx=0;entryDy=0;entryPerimeter=0;" parent="1" source="mdZepBdXDWqf7ZCcDm8Q-80" target="mdZepBdXDWqf7ZCcDm8Q-83" edge="1">
          <mxGeometry width="50" height="50" relative="1" as="geometry">
            <mxPoint x="2375" y="410" as="sourcePoint" />
            <mxPoint x="2375" y="353" as="targetPoint" />
          </mxGeometry>
        </mxCell>
        <mxCell id="mdZepBdXDWqf7ZCcDm8Q-88" value="Bukan" style="edgeLabel;html=1;align=center;verticalAlign=middle;resizable=0;points=[];" parent="mdZepBdXDWqf7ZCcDm8Q-86" vertex="1" connectable="0">
          <mxGeometry x="-0.0848" relative="1" as="geometry">
            <mxPoint x="25" as="offset" />
          </mxGeometry>
        </mxCell>
        <mxCell id="mdZepBdXDWqf7ZCcDm8Q-90" value="Apakah Saudara Tinggal Bersama Anda?" style="rhombus;whiteSpace=wrap;html=1;fillColor=#fff2cc;strokeColor=#d6b656;" parent="1" vertex="1">
          <mxGeometry x="2640" y="400" width="110" height="100" as="geometry" />
        </mxCell>
        <mxCell id="mdZepBdXDWqf7ZCcDm8Q-91" value="" style="endArrow=classic;html=1;rounded=0;exitX=1;exitY=0.5;exitDx=0;exitDy=0;entryX=0;entryY=0.5;entryDx=0;entryDy=0;" parent="1" source="mdZepBdXDWqf7ZCcDm8Q-82" target="mdZepBdXDWqf7ZCcDm8Q-90" edge="1">
          <mxGeometry width="50" height="50" relative="1" as="geometry">
            <mxPoint x="2630" y="450" as="sourcePoint" />
            <mxPoint x="2680" y="400" as="targetPoint" />
          </mxGeometry>
        </mxCell>
        <mxCell id="mdZepBdXDWqf7ZCcDm8Q-92" value="" style="endArrow=classic;html=1;rounded=0;exitX=1;exitY=0.5;exitDx=0;exitDy=0;" parent="1" source="mdZepBdXDWqf7ZCcDm8Q-83" edge="1">
          <mxGeometry width="50" height="50" relative="1" as="geometry">
            <mxPoint x="2620" y="510" as="sourcePoint" />
            <mxPoint x="2610" y="450" as="targetPoint" />
            <Array as="points">
              <mxPoint x="2610" y="570" />
            </Array>
          </mxGeometry>
        </mxCell>
        <mxCell id="mdZepBdXDWqf7ZCcDm8Q-93" value="" style="endArrow=classic;html=1;rounded=0;exitX=1;exitY=0.5;exitDx=0;exitDy=0;entryX=0;entryY=0.5;entryDx=0;entryDy=0;" parent="1" source="mdZepBdXDWqf7ZCcDm8Q-90" edge="1" target="dw2K8p2eMYUvbzomziok-10">
          <mxGeometry width="50" height="50" relative="1" as="geometry">
            <mxPoint x="2880" y="510" as="sourcePoint" />
            <mxPoint x="2790" y="450" as="targetPoint" />
          </mxGeometry>
        </mxCell>
        <mxCell id="mdZepBdXDWqf7ZCcDm8Q-96" value="Ya" style="edgeLabel;html=1;align=center;verticalAlign=middle;resizable=0;points=[];" parent="mdZepBdXDWqf7ZCcDm8Q-93" vertex="1" connectable="0">
          <mxGeometry x="-0.2605" y="1" relative="1" as="geometry">
            <mxPoint as="offset" />
          </mxGeometry>
        </mxCell>
        <mxCell id="mdZepBdXDWqf7ZCcDm8Q-94" value="" style="endArrow=classic;html=1;rounded=0;exitX=0.5;exitY=1;exitDx=0;exitDy=0;" parent="1" source="mdZepBdXDWqf7ZCcDm8Q-90" edge="1">
          <mxGeometry width="50" height="50" relative="1" as="geometry">
            <mxPoint x="2750" y="510" as="sourcePoint" />
            <mxPoint x="2695" y="550" as="targetPoint" />
          </mxGeometry>
        </mxCell>
        <mxCell id="mdZepBdXDWqf7ZCcDm8Q-95" value="Tidak" style="edgeLabel;html=1;align=center;verticalAlign=middle;resizable=0;points=[];" parent="mdZepBdXDWqf7ZCcDm8Q-94" vertex="1" connectable="0">
          <mxGeometry x="-0.3512" relative="1" as="geometry">
            <mxPoint as="offset" />
          </mxGeometry>
        </mxCell>
        <mxCell id="mdZepBdXDWqf7ZCcDm8Q-98" value="Masukan Alamat Saudara Anda" style="shape=parallelogram;perimeter=parallelogramPerimeter;whiteSpace=wrap;html=1;fixedSize=1;fillColor=#f5f5f5;fontColor=#333333;strokeColor=#666666;" parent="1" vertex="1">
          <mxGeometry x="2640" y="550" width="120" height="60" as="geometry" />
        </mxCell>
        <mxCell id="mdZepBdXDWqf7ZCcDm8Q-100" value="Pilih Sekolah" style="shape=parallelogram;perimeter=parallelogramPerimeter;whiteSpace=wrap;html=1;fixedSize=1;fillColor=#f5f5f5;fontColor=#333333;strokeColor=#666666;" parent="1" vertex="1">
          <mxGeometry x="1950" y="280" width="150" height="60" as="geometry" />
        </mxCell>
        <mxCell id="mdZepBdXDWqf7ZCcDm8Q-101" value="Apakah sekolah yang dipilih merupakan jenjang PAUD, TK, atau SD?" style="rhombus;whiteSpace=wrap;html=1;fillColor=#fff2cc;strokeColor=#d6b656;" parent="1" vertex="1">
          <mxGeometry x="2150" y="230" width="150" height="155" as="geometry" />
        </mxCell>
        <mxCell id="mdZepBdXDWqf7ZCcDm8Q-102" value="" style="endArrow=classic;html=1;rounded=0;exitX=1;exitY=0.5;exitDx=0;exitDy=0;entryX=0;entryY=0.516;entryDx=0;entryDy=0;entryPerimeter=0;" parent="1" source="mdZepBdXDWqf7ZCcDm8Q-100" target="mdZepBdXDWqf7ZCcDm8Q-101" edge="1">
          <mxGeometry width="50" height="50" relative="1" as="geometry">
            <mxPoint x="2100" y="420" as="sourcePoint" />
            <mxPoint x="2150" y="370" as="targetPoint" />
          </mxGeometry>
        </mxCell>
        <mxCell id="dw2K8p2eMYUvbzomziok-231" style="edgeStyle=orthogonalEdgeStyle;rounded=0;orthogonalLoop=1;jettySize=auto;html=1;exitX=1;exitY=0.5;exitDx=0;exitDy=0;entryX=0.5;entryY=0;entryDx=0;entryDy=0;" edge="1" parent="1" source="mdZepBdXDWqf7ZCcDm8Q-103" target="mdZepBdXDWqf7ZCcDm8Q-109">
          <mxGeometry relative="1" as="geometry" />
        </mxCell>
        <mxCell id="mdZepBdXDWqf7ZCcDm8Q-103" value="Masukan NISN Anda (Tidak Wajib)" style="shape=parallelogram;perimeter=parallelogramPerimeter;whiteSpace=wrap;html=1;fixedSize=1;fillColor=#f5f5f5;fontColor=#333333;strokeColor=#666666;" parent="1" vertex="1">
          <mxGeometry x="2150" y="130" width="150" height="60" as="geometry" />
        </mxCell>
        <mxCell id="mdZepBdXDWqf7ZCcDm8Q-104" value="" style="endArrow=classic;html=1;rounded=0;entryX=0.5;entryY=1;entryDx=0;entryDy=0;exitX=0.5;exitY=0;exitDx=0;exitDy=0;" parent="1" source="mdZepBdXDWqf7ZCcDm8Q-101" target="mdZepBdXDWqf7ZCcDm8Q-103" edge="1">
          <mxGeometry width="50" height="50" relative="1" as="geometry">
            <mxPoint x="2160" y="300" as="sourcePoint" />
            <mxPoint x="2210" y="250" as="targetPoint" />
          </mxGeometry>
        </mxCell>
        <mxCell id="mdZepBdXDWqf7ZCcDm8Q-105" value="Ya" style="edgeLabel;html=1;align=center;verticalAlign=middle;resizable=0;points=[];" parent="mdZepBdXDWqf7ZCcDm8Q-104" vertex="1" connectable="0">
          <mxGeometry x="-0.0707" y="1" relative="1" as="geometry">
            <mxPoint as="offset" />
          </mxGeometry>
        </mxCell>
        <mxCell id="mdZepBdXDWqf7ZCcDm8Q-106" value="Masukan NISN Anda" style="shape=parallelogram;perimeter=parallelogramPerimeter;whiteSpace=wrap;html=1;fixedSize=1;fillColor=#f5f5f5;fontColor=#333333;strokeColor=#666666;" parent="1" vertex="1">
          <mxGeometry x="2340" y="277.5" width="150" height="60" as="geometry" />
        </mxCell>
        <mxCell id="mdZepBdXDWqf7ZCcDm8Q-107" value="" style="endArrow=classic;html=1;rounded=0;exitX=1;exitY=0.5;exitDx=0;exitDy=0;entryX=0;entryY=0.5;entryDx=0;entryDy=0;" parent="1" source="mdZepBdXDWqf7ZCcDm8Q-101" target="mdZepBdXDWqf7ZCcDm8Q-106" edge="1">
          <mxGeometry width="50" height="50" relative="1" as="geometry">
            <mxPoint x="2310" y="290" as="sourcePoint" />
            <mxPoint x="2360" y="240" as="targetPoint" />
          </mxGeometry>
        </mxCell>
        <mxCell id="mdZepBdXDWqf7ZCcDm8Q-108" value="Tidak" style="edgeLabel;html=1;align=center;verticalAlign=middle;resizable=0;points=[];" parent="mdZepBdXDWqf7ZCcDm8Q-107" vertex="1" connectable="0">
          <mxGeometry x="-0.5031" relative="1" as="geometry">
            <mxPoint x="7" y="-7" as="offset" />
          </mxGeometry>
        </mxCell>
        <mxCell id="mdZepBdXDWqf7ZCcDm8Q-109" value="Pilih Kelamin Anda" style="shape=parallelogram;perimeter=parallelogramPerimeter;whiteSpace=wrap;html=1;fixedSize=1;fillColor=#f5f5f5;fontColor=#333333;strokeColor=#666666;" parent="1" vertex="1">
          <mxGeometry x="2520" y="277.5" width="150" height="60" as="geometry" />
        </mxCell>
        <mxCell id="mdZepBdXDWqf7ZCcDm8Q-113" value="" style="endArrow=classic;html=1;rounded=0;exitX=1;exitY=0.5;exitDx=0;exitDy=0;entryX=0.459;entryY=1.033;entryDx=0;entryDy=0;entryPerimeter=0;" parent="1" source="mdZepBdXDWqf7ZCcDm8Q-98" target="dw2K8p2eMYUvbzomziok-10" edge="1">
          <mxGeometry width="50" height="50" relative="1" as="geometry">
            <mxPoint x="2800" y="560" as="sourcePoint" />
            <mxPoint x="2805" y="450" as="targetPoint" />
            <Array as="points">
              <mxPoint x="2929" y="580" />
            </Array>
          </mxGeometry>
        </mxCell>
        <mxCell id="mdZepBdXDWqf7ZCcDm8Q-116" value="" style="endArrow=classic;html=1;rounded=0;entryX=0;entryY=0.5;entryDx=0;entryDy=0;exitX=1;exitY=0.5;exitDx=0;exitDy=0;" parent="1" source="mdZepBdXDWqf7ZCcDm8Q-106" target="mdZepBdXDWqf7ZCcDm8Q-109" edge="1">
          <mxGeometry width="50" height="50" relative="1" as="geometry">
            <mxPoint x="2400" y="430" as="sourcePoint" />
            <mxPoint x="2450" y="380" as="targetPoint" />
          </mxGeometry>
        </mxCell>
        <mxCell id="dw2K8p2eMYUvbzomziok-1" value="Pilih Agama Anda" style="shape=parallelogram;perimeter=parallelogramPerimeter;whiteSpace=wrap;html=1;fixedSize=1;fillColor=#f5f5f5;fontColor=#333333;strokeColor=#666666;" vertex="1" parent="1">
          <mxGeometry x="2710" y="277.5" width="150" height="60" as="geometry" />
        </mxCell>
        <mxCell id="dw2K8p2eMYUvbzomziok-2" value="" style="endArrow=classic;html=1;rounded=0;entryX=0;entryY=0.5;entryDx=0;entryDy=0;exitX=1;exitY=0.5;exitDx=0;exitDy=0;" edge="1" parent="1" source="mdZepBdXDWqf7ZCcDm8Q-109" target="dw2K8p2eMYUvbzomziok-1">
          <mxGeometry width="50" height="50" relative="1" as="geometry">
            <mxPoint x="2490" y="318" as="sourcePoint" />
            <mxPoint x="2540" y="318" as="targetPoint" />
          </mxGeometry>
        </mxCell>
        <mxCell id="dw2K8p2eMYUvbzomziok-3" value="Masukan Tempat Lahir Anda" style="shape=parallelogram;perimeter=parallelogramPerimeter;whiteSpace=wrap;html=1;fixedSize=1;fillColor=#f5f5f5;fontColor=#333333;strokeColor=#666666;" vertex="1" parent="1">
          <mxGeometry x="2880" y="280" width="150" height="60" as="geometry" />
        </mxCell>
        <mxCell id="dw2K8p2eMYUvbzomziok-4" value="" style="endArrow=classic;html=1;rounded=0;exitX=0.927;exitY=0.54;exitDx=0;exitDy=0;entryX=0;entryY=0.5;entryDx=0;entryDy=0;exitPerimeter=0;" edge="1" parent="1" source="dw2K8p2eMYUvbzomziok-1" target="dw2K8p2eMYUvbzomziok-3">
          <mxGeometry width="50" height="50" relative="1" as="geometry">
            <mxPoint x="2850" y="390" as="sourcePoint" />
            <mxPoint x="2900" y="340" as="targetPoint" />
          </mxGeometry>
        </mxCell>
        <mxCell id="dw2K8p2eMYUvbzomziok-5" value="Masukan Tanggal Lahir Anda" style="shape=parallelogram;perimeter=parallelogramPerimeter;whiteSpace=wrap;html=1;fixedSize=1;fillColor=#f5f5f5;fontColor=#333333;strokeColor=#666666;" vertex="1" parent="1">
          <mxGeometry x="3050" y="280" width="150" height="60" as="geometry" />
        </mxCell>
        <mxCell id="dw2K8p2eMYUvbzomziok-6" value="" style="endArrow=classic;html=1;rounded=0;exitX=1;exitY=0.5;exitDx=0;exitDy=0;entryX=0;entryY=0.5;entryDx=0;entryDy=0;" edge="1" parent="1" source="dw2K8p2eMYUvbzomziok-3" target="dw2K8p2eMYUvbzomziok-5">
          <mxGeometry width="50" height="50" relative="1" as="geometry">
            <mxPoint x="3010" y="350" as="sourcePoint" />
            <mxPoint x="3060" y="300" as="targetPoint" />
          </mxGeometry>
        </mxCell>
        <mxCell id="dw2K8p2eMYUvbzomziok-220" style="edgeStyle=orthogonalEdgeStyle;rounded=0;orthogonalLoop=1;jettySize=auto;html=1;exitX=1;exitY=0.5;exitDx=0;exitDy=0;entryX=0;entryY=0.5;entryDx=0;entryDy=0;" edge="1" parent="1" source="dw2K8p2eMYUvbzomziok-7" target="dw2K8p2eMYUvbzomziok-218">
          <mxGeometry relative="1" as="geometry" />
        </mxCell>
        <mxCell id="dw2K8p2eMYUvbzomziok-7" value="Anda Anak ke Berapa di Keluarga" style="shape=parallelogram;perimeter=parallelogramPerimeter;whiteSpace=wrap;html=1;fixedSize=1;fillColor=#f5f5f5;fontColor=#333333;strokeColor=#666666;" vertex="1" parent="1">
          <mxGeometry x="3220" y="277.5" width="180" height="60" as="geometry" />
        </mxCell>
        <mxCell id="dw2K8p2eMYUvbzomziok-8" value="" style="endArrow=classic;html=1;rounded=0;exitX=1;exitY=0.5;exitDx=0;exitDy=0;entryX=0.05;entryY=0.547;entryDx=0;entryDy=0;entryPerimeter=0;" edge="1" parent="1" source="dw2K8p2eMYUvbzomziok-5" target="dw2K8p2eMYUvbzomziok-7">
          <mxGeometry width="50" height="50" relative="1" as="geometry">
            <mxPoint x="3200" y="300" as="sourcePoint" />
            <mxPoint x="3250" y="250" as="targetPoint" />
          </mxGeometry>
        </mxCell>
        <mxCell id="dw2K8p2eMYUvbzomziok-10" value="Pilih Sekolah" style="shape=parallelogram;perimeter=parallelogramPerimeter;whiteSpace=wrap;html=1;fixedSize=1;fillColor=#f5f5f5;fontColor=#333333;strokeColor=#666666;" vertex="1" parent="1">
          <mxGeometry x="2860" y="420" width="150" height="60" as="geometry" />
        </mxCell>
        <mxCell id="dw2K8p2eMYUvbzomziok-11" value="Apakah sekolah yang dipilih merupakan jenjang PAUD, TK, atau SD?" style="rhombus;whiteSpace=wrap;html=1;fillColor=#fff2cc;strokeColor=#d6b656;" vertex="1" parent="1">
          <mxGeometry x="3060" y="370" width="150" height="155" as="geometry" />
        </mxCell>
        <mxCell id="dw2K8p2eMYUvbzomziok-12" value="" style="endArrow=classic;html=1;rounded=0;exitX=1;exitY=0.5;exitDx=0;exitDy=0;entryX=0;entryY=0.516;entryDx=0;entryDy=0;entryPerimeter=0;" edge="1" parent="1" source="dw2K8p2eMYUvbzomziok-10" target="dw2K8p2eMYUvbzomziok-11">
          <mxGeometry width="50" height="50" relative="1" as="geometry">
            <mxPoint x="3010" y="560" as="sourcePoint" />
            <mxPoint x="3060" y="510" as="targetPoint" />
          </mxGeometry>
        </mxCell>
        <mxCell id="dw2K8p2eMYUvbzomziok-233" style="edgeStyle=orthogonalEdgeStyle;rounded=0;orthogonalLoop=1;jettySize=auto;html=1;exitX=1;exitY=0.5;exitDx=0;exitDy=0;" edge="1" parent="1" source="dw2K8p2eMYUvbzomziok-13" target="dw2K8p2eMYUvbzomziok-19">
          <mxGeometry relative="1" as="geometry" />
        </mxCell>
        <mxCell id="dw2K8p2eMYUvbzomziok-13" value="Masukan NISN Saudara Anda (Tidak Wajib)" style="shape=parallelogram;perimeter=parallelogramPerimeter;whiteSpace=wrap;html=1;fixedSize=1;fillColor=#f5f5f5;fontColor=#333333;strokeColor=#666666;" vertex="1" parent="1">
          <mxGeometry x="3049.56" y="580" width="150" height="60" as="geometry" />
        </mxCell>
        <mxCell id="dw2K8p2eMYUvbzomziok-14" value="" style="endArrow=classic;html=1;rounded=0;entryX=0.553;entryY=0.02;entryDx=0;entryDy=0;exitX=0.5;exitY=1;exitDx=0;exitDy=0;entryPerimeter=0;" edge="1" parent="1" source="dw2K8p2eMYUvbzomziok-11" target="dw2K8p2eMYUvbzomziok-13">
          <mxGeometry width="50" height="50" relative="1" as="geometry">
            <mxPoint x="3070" y="440" as="sourcePoint" />
            <mxPoint x="3120" y="390" as="targetPoint" />
          </mxGeometry>
        </mxCell>
        <mxCell id="dw2K8p2eMYUvbzomziok-15" value="Ya" style="edgeLabel;html=1;align=center;verticalAlign=middle;resizable=0;points=[];" vertex="1" connectable="0" parent="dw2K8p2eMYUvbzomziok-14">
          <mxGeometry x="-0.0707" y="1" relative="1" as="geometry">
            <mxPoint as="offset" />
          </mxGeometry>
        </mxCell>
        <mxCell id="dw2K8p2eMYUvbzomziok-16" value="Masukan NISN Saudara Anda" style="shape=parallelogram;perimeter=parallelogramPerimeter;whiteSpace=wrap;html=1;fixedSize=1;fillColor=#f5f5f5;fontColor=#333333;strokeColor=#666666;" vertex="1" parent="1">
          <mxGeometry x="3250" y="417.5" width="150" height="60" as="geometry" />
        </mxCell>
        <mxCell id="dw2K8p2eMYUvbzomziok-17" value="" style="endArrow=classic;html=1;rounded=0;exitX=1;exitY=0.5;exitDx=0;exitDy=0;entryX=0;entryY=0.5;entryDx=0;entryDy=0;" edge="1" parent="1" source="dw2K8p2eMYUvbzomziok-11" target="dw2K8p2eMYUvbzomziok-16">
          <mxGeometry width="50" height="50" relative="1" as="geometry">
            <mxPoint x="3220" y="430" as="sourcePoint" />
            <mxPoint x="3270" y="380" as="targetPoint" />
          </mxGeometry>
        </mxCell>
        <mxCell id="dw2K8p2eMYUvbzomziok-18" value="Tidak" style="edgeLabel;html=1;align=center;verticalAlign=middle;resizable=0;points=[];" vertex="1" connectable="0" parent="dw2K8p2eMYUvbzomziok-17">
          <mxGeometry x="-0.5031" relative="1" as="geometry">
            <mxPoint x="7" y="-7" as="offset" />
          </mxGeometry>
        </mxCell>
        <mxCell id="dw2K8p2eMYUvbzomziok-19" value="Pilih Kelamin Anak/Saudara Anda" style="shape=parallelogram;perimeter=parallelogramPerimeter;whiteSpace=wrap;html=1;fixedSize=1;fillColor=#f5f5f5;fontColor=#333333;strokeColor=#666666;" vertex="1" parent="1">
          <mxGeometry x="3430" y="417.5" width="150" height="60" as="geometry" />
        </mxCell>
        <mxCell id="dw2K8p2eMYUvbzomziok-20" value="" style="endArrow=classic;html=1;rounded=0;entryX=0;entryY=0.5;entryDx=0;entryDy=0;exitX=1;exitY=0.5;exitDx=0;exitDy=0;" edge="1" parent="1" source="dw2K8p2eMYUvbzomziok-16" target="dw2K8p2eMYUvbzomziok-19">
          <mxGeometry width="50" height="50" relative="1" as="geometry">
            <mxPoint x="3310" y="570" as="sourcePoint" />
            <mxPoint x="3360" y="520" as="targetPoint" />
          </mxGeometry>
        </mxCell>
        <mxCell id="dw2K8p2eMYUvbzomziok-21" value="Pilih Agama Saudara Anda" style="shape=parallelogram;perimeter=parallelogramPerimeter;whiteSpace=wrap;html=1;fixedSize=1;fillColor=#f5f5f5;fontColor=#333333;strokeColor=#666666;" vertex="1" parent="1">
          <mxGeometry x="3600" y="417.5" width="170" height="60" as="geometry" />
        </mxCell>
        <mxCell id="dw2K8p2eMYUvbzomziok-22" value="" style="endArrow=classic;html=1;rounded=0;entryX=0;entryY=0.5;entryDx=0;entryDy=0;exitX=1;exitY=0.5;exitDx=0;exitDy=0;" edge="1" parent="1" source="dw2K8p2eMYUvbzomziok-19" target="dw2K8p2eMYUvbzomziok-21">
          <mxGeometry width="50" height="50" relative="1" as="geometry">
            <mxPoint x="3400" y="458" as="sourcePoint" />
            <mxPoint x="3450" y="458" as="targetPoint" />
          </mxGeometry>
        </mxCell>
        <mxCell id="dw2K8p2eMYUvbzomziok-23" value="Masukan Tempat Lahir Saudara Anda" style="shape=parallelogram;perimeter=parallelogramPerimeter;whiteSpace=wrap;html=1;fixedSize=1;fillColor=#f5f5f5;fontColor=#333333;strokeColor=#666666;" vertex="1" parent="1">
          <mxGeometry x="3790" y="420" width="150" height="60" as="geometry" />
        </mxCell>
        <mxCell id="dw2K8p2eMYUvbzomziok-24" value="" style="endArrow=classic;html=1;rounded=0;exitX=0.927;exitY=0.54;exitDx=0;exitDy=0;entryX=0;entryY=0.5;entryDx=0;entryDy=0;exitPerimeter=0;" edge="1" parent="1" source="dw2K8p2eMYUvbzomziok-21" target="dw2K8p2eMYUvbzomziok-23">
          <mxGeometry width="50" height="50" relative="1" as="geometry">
            <mxPoint x="3760" y="530" as="sourcePoint" />
            <mxPoint x="3810" y="480" as="targetPoint" />
          </mxGeometry>
        </mxCell>
        <mxCell id="dw2K8p2eMYUvbzomziok-25" value="Masukan Tanggal Lahir Saudara Anda" style="shape=parallelogram;perimeter=parallelogramPerimeter;whiteSpace=wrap;html=1;fixedSize=1;fillColor=#f5f5f5;fontColor=#333333;strokeColor=#666666;" vertex="1" parent="1">
          <mxGeometry x="3960" y="420" width="150" height="60" as="geometry" />
        </mxCell>
        <mxCell id="dw2K8p2eMYUvbzomziok-26" value="" style="endArrow=classic;html=1;rounded=0;exitX=1;exitY=0.5;exitDx=0;exitDy=0;entryX=0;entryY=0.5;entryDx=0;entryDy=0;" edge="1" parent="1" source="dw2K8p2eMYUvbzomziok-23" target="dw2K8p2eMYUvbzomziok-25">
          <mxGeometry width="50" height="50" relative="1" as="geometry">
            <mxPoint x="3920" y="490" as="sourcePoint" />
            <mxPoint x="3970" y="440" as="targetPoint" />
          </mxGeometry>
        </mxCell>
        <mxCell id="dw2K8p2eMYUvbzomziok-219" value="" style="edgeStyle=orthogonalEdgeStyle;rounded=0;orthogonalLoop=1;jettySize=auto;html=1;" edge="1" parent="1" source="dw2K8p2eMYUvbzomziok-27" target="dw2K8p2eMYUvbzomziok-218">
          <mxGeometry relative="1" as="geometry" />
        </mxCell>
        <mxCell id="dw2K8p2eMYUvbzomziok-27" value="Saudara Anda Anak ke Berapa di Keluarga" style="shape=parallelogram;perimeter=parallelogramPerimeter;whiteSpace=wrap;html=1;fixedSize=1;fillColor=#f5f5f5;fontColor=#333333;strokeColor=#666666;" vertex="1" parent="1">
          <mxGeometry x="4130" y="417.5" width="210" height="60" as="geometry" />
        </mxCell>
        <mxCell id="dw2K8p2eMYUvbzomziok-28" value="" style="endArrow=classic;html=1;rounded=0;exitX=1;exitY=0.5;exitDx=0;exitDy=0;entryX=0.05;entryY=0.547;entryDx=0;entryDy=0;entryPerimeter=0;" edge="1" parent="1" source="dw2K8p2eMYUvbzomziok-25" target="dw2K8p2eMYUvbzomziok-27">
          <mxGeometry width="50" height="50" relative="1" as="geometry">
            <mxPoint x="4110" y="440" as="sourcePoint" />
            <mxPoint x="4160" y="390" as="targetPoint" />
          </mxGeometry>
        </mxCell>
        <mxCell id="dw2K8p2eMYUvbzomziok-30" value="Masuk ke Pertanyaan Seputar Saudara Yang Anda Daftarkan" style="rounded=1;whiteSpace=wrap;html=1;fillColor=#dae8fc;strokeColor=#6c8ebf;" vertex="1" parent="1">
          <mxGeometry x="1740" y="417.5" width="120" height="60" as="geometry" />
        </mxCell>
        <mxCell id="dw2K8p2eMYUvbzomziok-35" value="Masukan Nama Anak Anda" style="shape=parallelogram;perimeter=parallelogramPerimeter;whiteSpace=wrap;html=1;fixedSize=1;fillColor=#f5f5f5;fontColor=#333333;strokeColor=#666666;" vertex="1" parent="1">
          <mxGeometry x="1720" y="-120" width="170" height="60" as="geometry" />
        </mxCell>
        <mxCell id="dw2K8p2eMYUvbzomziok-36" value="Masukan No Telepon Anak Anda" style="shape=parallelogram;perimeter=parallelogramPerimeter;whiteSpace=wrap;html=1;fixedSize=1;fillColor=#f5f5f5;fontColor=#333333;strokeColor=#666666;" vertex="1" parent="1">
          <mxGeometry x="1925" y="-120" width="175" height="60" as="geometry" />
        </mxCell>
        <mxCell id="dw2K8p2eMYUvbzomziok-37" value="" style="endArrow=classic;html=1;rounded=0;exitX=1;exitY=0.5;exitDx=0;exitDy=0;entryX=0;entryY=0.5;entryDx=0;entryDy=0;" edge="1" parent="1" source="dw2K8p2eMYUvbzomziok-35" target="dw2K8p2eMYUvbzomziok-36">
          <mxGeometry width="50" height="50" relative="1" as="geometry">
            <mxPoint x="1925" y="-140" as="sourcePoint" />
            <mxPoint x="1975" y="-190" as="targetPoint" />
          </mxGeometry>
        </mxCell>
        <mxCell id="dw2K8p2eMYUvbzomziok-38" value="Apakah Anak Anda Orang Indonesia" style="rhombus;whiteSpace=wrap;html=1;fillColor=#fff2cc;strokeColor=#d6b656;" vertex="1" parent="1">
          <mxGeometry x="2125" y="-140" width="110" height="100" as="geometry" />
        </mxCell>
        <mxCell id="dw2K8p2eMYUvbzomziok-39" value="" style="endArrow=classic;html=1;rounded=0;exitX=1;exitY=0.5;exitDx=0;exitDy=0;entryX=0;entryY=0.5;entryDx=0;entryDy=0;" edge="1" parent="1" source="dw2K8p2eMYUvbzomziok-36" target="dw2K8p2eMYUvbzomziok-38">
          <mxGeometry width="50" height="50" relative="1" as="geometry">
            <mxPoint x="1855" y="-20" as="sourcePoint" />
            <mxPoint x="1905" y="-70" as="targetPoint" />
          </mxGeometry>
        </mxCell>
        <mxCell id="dw2K8p2eMYUvbzomziok-40" value="Masukan NIK Anak Anda" style="shape=parallelogram;perimeter=parallelogramPerimeter;whiteSpace=wrap;html=1;fixedSize=1;fillColor=#f5f5f5;fontColor=#333333;strokeColor=#666666;" vertex="1" parent="1">
          <mxGeometry x="2285" y="-120" width="120" height="60" as="geometry" />
        </mxCell>
        <mxCell id="dw2K8p2eMYUvbzomziok-41" value="Masukan No. Kitas/Paspor Anak Anda" style="shape=parallelogram;perimeter=parallelogramPerimeter;whiteSpace=wrap;html=1;fixedSize=1;fillColor=#f5f5f5;fontColor=#333333;strokeColor=#666666;" vertex="1" parent="1">
          <mxGeometry x="2120" width="120" height="60" as="geometry" />
        </mxCell>
        <mxCell id="dw2K8p2eMYUvbzomziok-42" value="" style="endArrow=classic;html=1;rounded=0;exitX=1;exitY=0.5;exitDx=0;exitDy=0;entryX=0;entryY=0.5;entryDx=0;entryDy=0;" edge="1" parent="1" source="dw2K8p2eMYUvbzomziok-38" target="dw2K8p2eMYUvbzomziok-40">
          <mxGeometry width="50" height="50" relative="1" as="geometry">
            <mxPoint x="1495" y="-260" as="sourcePoint" />
            <mxPoint x="2180" y="-190" as="targetPoint" />
          </mxGeometry>
        </mxCell>
        <mxCell id="dw2K8p2eMYUvbzomziok-43" value="Ya" style="edgeLabel;html=1;align=center;verticalAlign=middle;resizable=0;points=[];" vertex="1" connectable="0" parent="dw2K8p2eMYUvbzomziok-42">
          <mxGeometry x="-0.2302" y="2" relative="1" as="geometry">
            <mxPoint y="-8" as="offset" />
          </mxGeometry>
        </mxCell>
        <mxCell id="dw2K8p2eMYUvbzomziok-44" value="" style="endArrow=classic;html=1;rounded=0;exitX=0.5;exitY=1;exitDx=0;exitDy=0;entryX=0.507;entryY=-0.046;entryDx=0;entryDy=0;entryPerimeter=0;" edge="1" parent="1" source="dw2K8p2eMYUvbzomziok-38" target="dw2K8p2eMYUvbzomziok-41">
          <mxGeometry width="50" height="50" relative="1" as="geometry">
            <mxPoint x="2190" y="-130" as="sourcePoint" />
            <mxPoint x="2190" y="-187" as="targetPoint" />
          </mxGeometry>
        </mxCell>
        <mxCell id="dw2K8p2eMYUvbzomziok-45" value="Bukan" style="edgeLabel;html=1;align=center;verticalAlign=middle;resizable=0;points=[];" vertex="1" connectable="0" parent="dw2K8p2eMYUvbzomziok-44">
          <mxGeometry x="-0.0848" relative="1" as="geometry">
            <mxPoint x="25" as="offset" />
          </mxGeometry>
        </mxCell>
        <mxCell id="dw2K8p2eMYUvbzomziok-46" value="Apakah Anak Anda Tinggal Bersama Anda?" style="rhombus;whiteSpace=wrap;html=1;fillColor=#fff2cc;strokeColor=#d6b656;" vertex="1" parent="1">
          <mxGeometry x="2455" y="-140" width="110" height="100" as="geometry" />
        </mxCell>
        <mxCell id="dw2K8p2eMYUvbzomziok-47" value="" style="endArrow=classic;html=1;rounded=0;exitX=1;exitY=0.5;exitDx=0;exitDy=0;entryX=0;entryY=0.5;entryDx=0;entryDy=0;" edge="1" parent="1" source="dw2K8p2eMYUvbzomziok-40" target="dw2K8p2eMYUvbzomziok-46">
          <mxGeometry width="50" height="50" relative="1" as="geometry">
            <mxPoint x="2445" y="-90" as="sourcePoint" />
            <mxPoint x="2495" y="-140" as="targetPoint" />
          </mxGeometry>
        </mxCell>
        <mxCell id="dw2K8p2eMYUvbzomziok-48" value="" style="endArrow=classic;html=1;rounded=0;exitX=1;exitY=0.5;exitDx=0;exitDy=0;" edge="1" parent="1" source="dw2K8p2eMYUvbzomziok-41">
          <mxGeometry width="50" height="50" relative="1" as="geometry">
            <mxPoint x="2435" y="-30" as="sourcePoint" />
            <mxPoint x="2425" y="-90" as="targetPoint" />
            <Array as="points">
              <mxPoint x="2425" y="30" />
            </Array>
          </mxGeometry>
        </mxCell>
        <mxCell id="dw2K8p2eMYUvbzomziok-49" value="" style="endArrow=classic;html=1;rounded=0;exitX=1;exitY=0.5;exitDx=0;exitDy=0;entryX=0;entryY=0.5;entryDx=0;entryDy=0;" edge="1" parent="1" source="dw2K8p2eMYUvbzomziok-46" target="dw2K8p2eMYUvbzomziok-55">
          <mxGeometry width="50" height="50" relative="1" as="geometry">
            <mxPoint x="2695" y="-30" as="sourcePoint" />
            <mxPoint x="2605" y="-90" as="targetPoint" />
          </mxGeometry>
        </mxCell>
        <mxCell id="dw2K8p2eMYUvbzomziok-50" value="Ya" style="edgeLabel;html=1;align=center;verticalAlign=middle;resizable=0;points=[];" vertex="1" connectable="0" parent="dw2K8p2eMYUvbzomziok-49">
          <mxGeometry x="-0.2605" y="1" relative="1" as="geometry">
            <mxPoint as="offset" />
          </mxGeometry>
        </mxCell>
        <mxCell id="dw2K8p2eMYUvbzomziok-51" value="" style="endArrow=classic;html=1;rounded=0;exitX=0.5;exitY=1;exitDx=0;exitDy=0;" edge="1" parent="1" source="dw2K8p2eMYUvbzomziok-46">
          <mxGeometry width="50" height="50" relative="1" as="geometry">
            <mxPoint x="2565" y="-30" as="sourcePoint" />
            <mxPoint x="2510" y="10" as="targetPoint" />
          </mxGeometry>
        </mxCell>
        <mxCell id="dw2K8p2eMYUvbzomziok-52" value="Tidak" style="edgeLabel;html=1;align=center;verticalAlign=middle;resizable=0;points=[];" vertex="1" connectable="0" parent="dw2K8p2eMYUvbzomziok-51">
          <mxGeometry x="-0.3512" relative="1" as="geometry">
            <mxPoint as="offset" />
          </mxGeometry>
        </mxCell>
        <mxCell id="dw2K8p2eMYUvbzomziok-53" value="Masukan Alamat Anak Anda" style="shape=parallelogram;perimeter=parallelogramPerimeter;whiteSpace=wrap;html=1;fixedSize=1;fillColor=#f5f5f5;fontColor=#333333;strokeColor=#666666;" vertex="1" parent="1">
          <mxGeometry x="2455" y="10" width="120" height="60" as="geometry" />
        </mxCell>
        <mxCell id="dw2K8p2eMYUvbzomziok-54" value="" style="endArrow=classic;html=1;rounded=0;exitX=1;exitY=0.5;exitDx=0;exitDy=0;entryX=0.459;entryY=1.033;entryDx=0;entryDy=0;entryPerimeter=0;" edge="1" parent="1" source="dw2K8p2eMYUvbzomziok-53" target="dw2K8p2eMYUvbzomziok-55">
          <mxGeometry width="50" height="50" relative="1" as="geometry">
            <mxPoint x="2615" y="20" as="sourcePoint" />
            <mxPoint x="2620" y="-90" as="targetPoint" />
            <Array as="points">
              <mxPoint x="2744" y="40" />
            </Array>
          </mxGeometry>
        </mxCell>
        <mxCell id="dw2K8p2eMYUvbzomziok-55" value="Pilih Sekolah" style="shape=parallelogram;perimeter=parallelogramPerimeter;whiteSpace=wrap;html=1;fixedSize=1;fillColor=#f5f5f5;fontColor=#333333;strokeColor=#666666;" vertex="1" parent="1">
          <mxGeometry x="2675" y="-120" width="150" height="60" as="geometry" />
        </mxCell>
        <mxCell id="dw2K8p2eMYUvbzomziok-56" value="" style="endArrow=classic;html=1;rounded=0;exitX=0.945;exitY=0.456;exitDx=0;exitDy=0;entryX=0;entryY=0.5;entryDx=0;entryDy=0;exitPerimeter=0;" edge="1" parent="1" source="dw2K8p2eMYUvbzomziok-55" target="dw2K8p2eMYUvbzomziok-73">
          <mxGeometry width="50" height="50" relative="1" as="geometry">
            <mxPoint x="2825" y="20" as="sourcePoint" />
            <mxPoint x="2875" y="-90" as="targetPoint" />
          </mxGeometry>
        </mxCell>
        <mxCell id="dw2K8p2eMYUvbzomziok-232" style="edgeStyle=orthogonalEdgeStyle;rounded=0;orthogonalLoop=1;jettySize=auto;html=1;exitX=1;exitY=0.5;exitDx=0;exitDy=0;entryX=0.5;entryY=1;entryDx=0;entryDy=0;" edge="1" parent="1" source="dw2K8p2eMYUvbzomziok-57" target="dw2K8p2eMYUvbzomziok-63">
          <mxGeometry relative="1" as="geometry" />
        </mxCell>
        <mxCell id="dw2K8p2eMYUvbzomziok-57" value="Masukan NISN Anak Anda (Tidak Wajib)" style="shape=parallelogram;perimeter=parallelogramPerimeter;whiteSpace=wrap;html=1;fixedSize=1;fillColor=#f5f5f5;fontColor=#333333;strokeColor=#666666;" vertex="1" parent="1">
          <mxGeometry x="2880" y="40" width="150" height="60" as="geometry" />
        </mxCell>
        <mxCell id="dw2K8p2eMYUvbzomziok-58" value="" style="endArrow=classic;html=1;rounded=0;entryX=0.5;entryY=0;entryDx=0;entryDy=0;exitX=0.5;exitY=1;exitDx=0;exitDy=0;" edge="1" parent="1" target="dw2K8p2eMYUvbzomziok-57" source="dw2K8p2eMYUvbzomziok-73">
          <mxGeometry width="50" height="50" relative="1" as="geometry">
            <mxPoint x="2950" y="-15" as="sourcePoint" />
            <mxPoint x="2935" y="-150" as="targetPoint" />
          </mxGeometry>
        </mxCell>
        <mxCell id="dw2K8p2eMYUvbzomziok-59" value="Ya" style="edgeLabel;html=1;align=center;verticalAlign=middle;resizable=0;points=[];" vertex="1" connectable="0" parent="dw2K8p2eMYUvbzomziok-58">
          <mxGeometry x="-0.0707" y="1" relative="1" as="geometry">
            <mxPoint as="offset" />
          </mxGeometry>
        </mxCell>
        <mxCell id="dw2K8p2eMYUvbzomziok-60" value="Masukan NISN Anak Anda" style="shape=parallelogram;perimeter=parallelogramPerimeter;whiteSpace=wrap;html=1;fixedSize=1;fillColor=#f5f5f5;fontColor=#333333;strokeColor=#666666;" vertex="1" parent="1">
          <mxGeometry x="3065" y="-122.5" width="165" height="60" as="geometry" />
        </mxCell>
        <mxCell id="dw2K8p2eMYUvbzomziok-61" value="" style="endArrow=classic;html=1;rounded=0;exitX=1;exitY=0.5;exitDx=0;exitDy=0;entryX=0;entryY=0.5;entryDx=0;entryDy=0;" edge="1" parent="1" target="dw2K8p2eMYUvbzomziok-60">
          <mxGeometry width="50" height="50" relative="1" as="geometry">
            <mxPoint x="3025" y="-92" as="sourcePoint" />
            <mxPoint x="3085" y="-160" as="targetPoint" />
          </mxGeometry>
        </mxCell>
        <mxCell id="dw2K8p2eMYUvbzomziok-62" value="Tidak" style="edgeLabel;html=1;align=center;verticalAlign=middle;resizable=0;points=[];" vertex="1" connectable="0" parent="dw2K8p2eMYUvbzomziok-61">
          <mxGeometry x="-0.5031" relative="1" as="geometry">
            <mxPoint x="7" y="-7" as="offset" />
          </mxGeometry>
        </mxCell>
        <mxCell id="dw2K8p2eMYUvbzomziok-63" value="Pilih Kelamin Anak Anda" style="shape=parallelogram;perimeter=parallelogramPerimeter;whiteSpace=wrap;html=1;fixedSize=1;fillColor=#f5f5f5;fontColor=#333333;strokeColor=#666666;" vertex="1" parent="1">
          <mxGeometry x="3245" y="-122.5" width="155" height="60" as="geometry" />
        </mxCell>
        <mxCell id="dw2K8p2eMYUvbzomziok-64" value="" style="endArrow=classic;html=1;rounded=0;entryX=0;entryY=0.5;entryDx=0;entryDy=0;exitX=1;exitY=0.5;exitDx=0;exitDy=0;" edge="1" parent="1" source="dw2K8p2eMYUvbzomziok-60" target="dw2K8p2eMYUvbzomziok-63">
          <mxGeometry width="50" height="50" relative="1" as="geometry">
            <mxPoint x="3125" y="30" as="sourcePoint" />
            <mxPoint x="3175" y="-20" as="targetPoint" />
          </mxGeometry>
        </mxCell>
        <mxCell id="dw2K8p2eMYUvbzomziok-65" value="Pilih Agama Anak Anda" style="shape=parallelogram;perimeter=parallelogramPerimeter;whiteSpace=wrap;html=1;fixedSize=1;fillColor=#f5f5f5;fontColor=#333333;strokeColor=#666666;" vertex="1" parent="1">
          <mxGeometry x="3415" y="-122.5" width="170" height="60" as="geometry" />
        </mxCell>
        <mxCell id="dw2K8p2eMYUvbzomziok-66" value="" style="endArrow=classic;html=1;rounded=0;entryX=0;entryY=0.5;entryDx=0;entryDy=0;exitX=1;exitY=0.5;exitDx=0;exitDy=0;" edge="1" parent="1" source="dw2K8p2eMYUvbzomziok-63" target="dw2K8p2eMYUvbzomziok-65">
          <mxGeometry width="50" height="50" relative="1" as="geometry">
            <mxPoint x="3215" y="-82" as="sourcePoint" />
            <mxPoint x="3265" y="-82" as="targetPoint" />
          </mxGeometry>
        </mxCell>
        <mxCell id="dw2K8p2eMYUvbzomziok-67" value="Masukan Tempat Lahir Anak Anda" style="shape=parallelogram;perimeter=parallelogramPerimeter;whiteSpace=wrap;html=1;fixedSize=1;fillColor=#f5f5f5;fontColor=#333333;strokeColor=#666666;" vertex="1" parent="1">
          <mxGeometry x="3605" y="-120" width="150" height="60" as="geometry" />
        </mxCell>
        <mxCell id="dw2K8p2eMYUvbzomziok-68" value="" style="endArrow=classic;html=1;rounded=0;exitX=0.927;exitY=0.54;exitDx=0;exitDy=0;entryX=0;entryY=0.5;entryDx=0;entryDy=0;exitPerimeter=0;" edge="1" parent="1" source="dw2K8p2eMYUvbzomziok-65" target="dw2K8p2eMYUvbzomziok-67">
          <mxGeometry width="50" height="50" relative="1" as="geometry">
            <mxPoint x="3575" y="-10" as="sourcePoint" />
            <mxPoint x="3625" y="-60" as="targetPoint" />
          </mxGeometry>
        </mxCell>
        <mxCell id="dw2K8p2eMYUvbzomziok-69" value="Masukan Tanggal Lahir Anak Anda" style="shape=parallelogram;perimeter=parallelogramPerimeter;whiteSpace=wrap;html=1;fixedSize=1;fillColor=#f5f5f5;fontColor=#333333;strokeColor=#666666;" vertex="1" parent="1">
          <mxGeometry x="3775" y="-120" width="150" height="60" as="geometry" />
        </mxCell>
        <mxCell id="dw2K8p2eMYUvbzomziok-70" value="" style="endArrow=classic;html=1;rounded=0;exitX=1;exitY=0.5;exitDx=0;exitDy=0;entryX=0;entryY=0.5;entryDx=0;entryDy=0;" edge="1" parent="1" source="dw2K8p2eMYUvbzomziok-67" target="dw2K8p2eMYUvbzomziok-69">
          <mxGeometry width="50" height="50" relative="1" as="geometry">
            <mxPoint x="3735" y="-50" as="sourcePoint" />
            <mxPoint x="3785" y="-100" as="targetPoint" />
          </mxGeometry>
        </mxCell>
        <mxCell id="dw2K8p2eMYUvbzomziok-71" value="Anak Anda Anak ke Berapa di Keluarga" style="shape=parallelogram;perimeter=parallelogramPerimeter;whiteSpace=wrap;html=1;fixedSize=1;fillColor=#f5f5f5;fontColor=#333333;strokeColor=#666666;" vertex="1" parent="1">
          <mxGeometry x="3945" y="-122.5" width="190" height="60" as="geometry" />
        </mxCell>
        <mxCell id="dw2K8p2eMYUvbzomziok-72" value="" style="endArrow=classic;html=1;rounded=0;exitX=1;exitY=0.5;exitDx=0;exitDy=0;entryX=0.05;entryY=0.547;entryDx=0;entryDy=0;entryPerimeter=0;" edge="1" parent="1" source="dw2K8p2eMYUvbzomziok-69" target="dw2K8p2eMYUvbzomziok-71">
          <mxGeometry width="50" height="50" relative="1" as="geometry">
            <mxPoint x="3925" y="-100" as="sourcePoint" />
            <mxPoint x="3975" y="-150" as="targetPoint" />
          </mxGeometry>
        </mxCell>
        <mxCell id="dw2K8p2eMYUvbzomziok-73" value="Apakah sekolah yang dipilih merupakan jenjang PAUD, TK, atau SD?" style="rhombus;whiteSpace=wrap;html=1;fillColor=#fff2cc;strokeColor=#d6b656;" vertex="1" parent="1">
          <mxGeometry x="2880" y="-170" width="150" height="155" as="geometry" />
        </mxCell>
        <mxCell id="dw2K8p2eMYUvbzomziok-75" value="Masuk ke Pertanyaan Seputar Anak Anda Yang Anda Daftarkan" style="rounded=1;whiteSpace=wrap;html=1;fillColor=#dae8fc;strokeColor=#6c8ebf;" vertex="1" parent="1">
          <mxGeometry x="1740" y="30" width="120" height="60" as="geometry" />
        </mxCell>
        <mxCell id="dw2K8p2eMYUvbzomziok-76" value="" style="endArrow=classic;html=1;rounded=0;exitX=0.5;exitY=0;exitDx=0;exitDy=0;entryX=0.472;entryY=1.058;entryDx=0;entryDy=0;entryPerimeter=0;" edge="1" parent="1" source="dw2K8p2eMYUvbzomziok-75" target="dw2K8p2eMYUvbzomziok-35">
          <mxGeometry width="50" height="50" relative="1" as="geometry">
            <mxPoint x="1801.35" y="30" as="sourcePoint" />
            <mxPoint x="1800" y="-50" as="targetPoint" />
          </mxGeometry>
        </mxCell>
        <mxCell id="dw2K8p2eMYUvbzomziok-77" value="Sebagai Siapa Anda Mendaftarkan Anak Anda?" style="rhombus;whiteSpace=wrap;html=1;fillColor=#fff2cc;strokeColor=#d6b656;" vertex="1" parent="1">
          <mxGeometry x="4180" y="-147.5" width="110" height="110" as="geometry" />
        </mxCell>
        <mxCell id="dw2K8p2eMYUvbzomziok-78" value="" style="endArrow=classic;html=1;rounded=0;exitX=1;exitY=0.5;exitDx=0;exitDy=0;entryX=0;entryY=0.5;entryDx=0;entryDy=0;" edge="1" parent="1" source="dw2K8p2eMYUvbzomziok-71" target="dw2K8p2eMYUvbzomziok-77">
          <mxGeometry width="50" height="50" relative="1" as="geometry">
            <mxPoint x="4020" y="30" as="sourcePoint" />
            <mxPoint x="4070" y="-20" as="targetPoint" />
          </mxGeometry>
        </mxCell>
        <mxCell id="dw2K8p2eMYUvbzomziok-79" value="" style="endArrow=classic;html=1;rounded=0;exitX=0.5;exitY=0;exitDx=0;exitDy=0;" edge="1" parent="1" source="dw2K8p2eMYUvbzomziok-77">
          <mxGeometry width="50" height="50" relative="1" as="geometry">
            <mxPoint x="4250" y="-140" as="sourcePoint" />
            <mxPoint x="4235" y="-200" as="targetPoint" />
          </mxGeometry>
        </mxCell>
        <mxCell id="dw2K8p2eMYUvbzomziok-97" value="Ayah" style="edgeLabel;html=1;align=center;verticalAlign=middle;resizable=0;points=[];" vertex="1" connectable="0" parent="dw2K8p2eMYUvbzomziok-79">
          <mxGeometry x="-0.0381" y="1" relative="1" as="geometry">
            <mxPoint as="offset" />
          </mxGeometry>
        </mxCell>
        <mxCell id="dw2K8p2eMYUvbzomziok-89" style="edgeStyle=orthogonalEdgeStyle;rounded=0;orthogonalLoop=1;jettySize=auto;html=1;entryX=0;entryY=0.5;entryDx=0;entryDy=0;" edge="1" parent="1" source="dw2K8p2eMYUvbzomziok-80" target="dw2K8p2eMYUvbzomziok-88">
          <mxGeometry relative="1" as="geometry" />
        </mxCell>
        <mxCell id="dw2K8p2eMYUvbzomziok-80" value="Keterangan: Anda Adalah Ayah dari Anak Anda" style="rounded=1;whiteSpace=wrap;html=1;fillColor=#dae8fc;strokeColor=#6c8ebf;" vertex="1" parent="1">
          <mxGeometry x="4175" y="-260" width="120" height="60" as="geometry" />
        </mxCell>
        <mxCell id="dw2K8p2eMYUvbzomziok-81" value="Keterangan: Anda Adalah Ibu dari Anak Anda" style="rounded=1;whiteSpace=wrap;html=1;fillColor=#dae8fc;strokeColor=#6c8ebf;" vertex="1" parent="1">
          <mxGeometry x="4175" y="10" width="120" height="60" as="geometry" />
        </mxCell>
        <mxCell id="dw2K8p2eMYUvbzomziok-82" value="" style="endArrow=classic;html=1;rounded=0;exitX=0.5;exitY=1;exitDx=0;exitDy=0;entryX=0.5;entryY=0;entryDx=0;entryDy=0;" edge="1" parent="1" source="dw2K8p2eMYUvbzomziok-77" target="dw2K8p2eMYUvbzomziok-81">
          <mxGeometry width="50" height="50" relative="1" as="geometry">
            <mxPoint x="4130" y="-70" as="sourcePoint" />
            <mxPoint x="4180" y="-120" as="targetPoint" />
          </mxGeometry>
        </mxCell>
        <mxCell id="dw2K8p2eMYUvbzomziok-98" value="Ibu" style="edgeLabel;html=1;align=center;verticalAlign=middle;resizable=0;points=[];" vertex="1" connectable="0" parent="dw2K8p2eMYUvbzomziok-82">
          <mxGeometry x="-0.2474" y="-1" relative="1" as="geometry">
            <mxPoint as="offset" />
          </mxGeometry>
        </mxCell>
        <mxCell id="dw2K8p2eMYUvbzomziok-93" value="" style="edgeStyle=orthogonalEdgeStyle;rounded=0;orthogonalLoop=1;jettySize=auto;html=1;" edge="1" parent="1" source="dw2K8p2eMYUvbzomziok-84" target="dw2K8p2eMYUvbzomziok-92">
          <mxGeometry relative="1" as="geometry" />
        </mxCell>
        <mxCell id="dw2K8p2eMYUvbzomziok-94" value="Belum" style="edgeLabel;html=1;align=center;verticalAlign=middle;resizable=0;points=[];" vertex="1" connectable="0" parent="dw2K8p2eMYUvbzomziok-93">
          <mxGeometry x="-0.4103" y="-1" relative="1" as="geometry">
            <mxPoint y="1" as="offset" />
          </mxGeometry>
        </mxCell>
        <mxCell id="dw2K8p2eMYUvbzomziok-84" value="Apakah Anda Sudah Menikah" style="rhombus;whiteSpace=wrap;html=1;fillColor=#fff2cc;strokeColor=#d6b656;" vertex="1" parent="1">
          <mxGeometry x="4445" y="-15" width="110" height="110" as="geometry" />
        </mxCell>
        <mxCell id="dw2K8p2eMYUvbzomziok-113" value="" style="edgeStyle=orthogonalEdgeStyle;rounded=0;orthogonalLoop=1;jettySize=auto;html=1;" edge="1" parent="1" source="dw2K8p2eMYUvbzomziok-86" target="dw2K8p2eMYUvbzomziok-109">
          <mxGeometry relative="1" as="geometry" />
        </mxCell>
        <mxCell id="dw2K8p2eMYUvbzomziok-146" value="Ya" style="edgeLabel;html=1;align=center;verticalAlign=middle;resizable=0;points=[];" vertex="1" connectable="0" parent="dw2K8p2eMYUvbzomziok-113">
          <mxGeometry x="-0.3667" y="-1" relative="1" as="geometry">
            <mxPoint y="-1" as="offset" />
          </mxGeometry>
        </mxCell>
        <mxCell id="dw2K8p2eMYUvbzomziok-86" value="Apakah Anda Ingin Memasukan Informasi Terkait Istri Anda/Siapapun yang dapat disebut ibu dari anak anda?" style="rhombus;whiteSpace=wrap;html=1;fillColor=#fff2cc;strokeColor=#d6b656;" vertex="1" parent="1">
          <mxGeometry x="4640" y="-325" width="180" height="190" as="geometry" />
        </mxCell>
        <mxCell id="dw2K8p2eMYUvbzomziok-87" value="" style="endArrow=classic;html=1;rounded=0;exitX=1;exitY=0.5;exitDx=0;exitDy=0;entryX=0;entryY=0.5;entryDx=0;entryDy=0;" edge="1" parent="1" source="dw2K8p2eMYUvbzomziok-81" target="dw2K8p2eMYUvbzomziok-84">
          <mxGeometry width="50" height="50" relative="1" as="geometry">
            <mxPoint x="4450" y="90" as="sourcePoint" />
            <mxPoint x="4360" y="40" as="targetPoint" />
          </mxGeometry>
        </mxCell>
        <mxCell id="dw2K8p2eMYUvbzomziok-88" value="Apakah Anda Sudah Menikah" style="rhombus;whiteSpace=wrap;html=1;fillColor=#fff2cc;strokeColor=#d6b656;" vertex="1" parent="1">
          <mxGeometry x="4445" y="-285" width="110" height="110" as="geometry" />
        </mxCell>
        <mxCell id="dw2K8p2eMYUvbzomziok-112" value="" style="edgeStyle=orthogonalEdgeStyle;rounded=0;orthogonalLoop=1;jettySize=auto;html=1;" edge="1" parent="1" source="dw2K8p2eMYUvbzomziok-92" target="dw2K8p2eMYUvbzomziok-108">
          <mxGeometry relative="1" as="geometry" />
        </mxCell>
        <mxCell id="dw2K8p2eMYUvbzomziok-149" value="Ya" style="edgeLabel;html=1;align=center;verticalAlign=middle;resizable=0;points=[];" vertex="1" connectable="0" parent="dw2K8p2eMYUvbzomziok-112">
          <mxGeometry x="-0.4188" y="2" relative="1" as="geometry">
            <mxPoint as="offset" />
          </mxGeometry>
        </mxCell>
        <mxCell id="dw2K8p2eMYUvbzomziok-92" value="Apakah Anda Ingin Memasukan Informasi Terkait Suami Anda/Siapapun yang dapat disebut ayah dari anak anda?" style="rhombus;whiteSpace=wrap;html=1;fillColor=#fff2cc;strokeColor=#d6b656;" vertex="1" parent="1">
          <mxGeometry x="4640" y="-55" width="180" height="190" as="geometry" />
        </mxCell>
        <mxCell id="dw2K8p2eMYUvbzomziok-95" value="" style="edgeStyle=orthogonalEdgeStyle;rounded=0;orthogonalLoop=1;jettySize=auto;html=1;exitX=1;exitY=0.5;exitDx=0;exitDy=0;entryX=0;entryY=0.5;entryDx=0;entryDy=0;" edge="1" parent="1" source="dw2K8p2eMYUvbzomziok-88" target="dw2K8p2eMYUvbzomziok-86">
          <mxGeometry relative="1" as="geometry">
            <mxPoint x="4565" y="50" as="sourcePoint" />
            <mxPoint x="4650" y="50" as="targetPoint" />
          </mxGeometry>
        </mxCell>
        <mxCell id="dw2K8p2eMYUvbzomziok-96" value="Belum" style="edgeLabel;html=1;align=center;verticalAlign=middle;resizable=0;points=[];" vertex="1" connectable="0" parent="dw2K8p2eMYUvbzomziok-95">
          <mxGeometry x="-0.4103" y="-1" relative="1" as="geometry">
            <mxPoint y="1" as="offset" />
          </mxGeometry>
        </mxCell>
        <mxCell id="dw2K8p2eMYUvbzomziok-169" style="edgeStyle=orthogonalEdgeStyle;rounded=0;orthogonalLoop=1;jettySize=auto;html=1;exitX=1;exitY=0.5;exitDx=0;exitDy=0;entryX=0.5;entryY=1;entryDx=0;entryDy=0;" edge="1" parent="1" source="dw2K8p2eMYUvbzomziok-100" target="dw2K8p2eMYUvbzomziok-155">
          <mxGeometry relative="1" as="geometry" />
        </mxCell>
        <mxCell id="dw2K8p2eMYUvbzomziok-100" value="Masuk Ke Pertanyaan Seputar Ayah" style="rounded=1;whiteSpace=wrap;html=1;fillColor=#dae8fc;strokeColor=#6c8ebf;" vertex="1" parent="1">
          <mxGeometry x="4650" y="267.5" width="120" height="60" as="geometry" />
        </mxCell>
        <mxCell id="dw2K8p2eMYUvbzomziok-124" value="" style="edgeStyle=orthogonalEdgeStyle;rounded=0;orthogonalLoop=1;jettySize=auto;html=1;" edge="1" parent="1" source="dw2K8p2eMYUvbzomziok-101" target="dw2K8p2eMYUvbzomziok-123">
          <mxGeometry relative="1" as="geometry" />
        </mxCell>
        <mxCell id="dw2K8p2eMYUvbzomziok-101" value="Masuk Ke Pertanyaan Seputar Ibu" style="rounded=1;whiteSpace=wrap;html=1;fillColor=#dae8fc;strokeColor=#6c8ebf;" vertex="1" parent="1">
          <mxGeometry x="4650" y="395" width="120" height="60" as="geometry" />
        </mxCell>
        <mxCell id="dw2K8p2eMYUvbzomziok-108" value="&amp;nbsp;B" style="ellipse;whiteSpace=wrap;html=1;aspect=fixed;fillColor=#e1d5e7;strokeColor=#9673a6;" vertex="1" parent="1">
          <mxGeometry x="4710" y="170" width="40" height="40" as="geometry" />
        </mxCell>
        <mxCell id="dw2K8p2eMYUvbzomziok-109" value="C" style="ellipse;whiteSpace=wrap;html=1;aspect=fixed;fillColor=#e1d5e7;strokeColor=#9673a6;" vertex="1" parent="1">
          <mxGeometry x="4710" y="-400" width="40" height="40" as="geometry" />
        </mxCell>
        <mxCell id="dw2K8p2eMYUvbzomziok-118" value="" style="edgeStyle=orthogonalEdgeStyle;rounded=0;orthogonalLoop=1;jettySize=auto;html=1;" edge="1" parent="1" source="dw2K8p2eMYUvbzomziok-114" target="dw2K8p2eMYUvbzomziok-101">
          <mxGeometry relative="1" as="geometry" />
        </mxCell>
        <mxCell id="dw2K8p2eMYUvbzomziok-114" value="C" style="ellipse;whiteSpace=wrap;html=1;aspect=fixed;fillColor=#ffcd28;strokeColor=#d79b00;gradientColor=#ffa500;" vertex="1" parent="1">
          <mxGeometry x="4540" y="405" width="40" height="40" as="geometry" />
        </mxCell>
        <mxCell id="dw2K8p2eMYUvbzomziok-117" value="" style="edgeStyle=orthogonalEdgeStyle;rounded=0;orthogonalLoop=1;jettySize=auto;html=1;" edge="1" parent="1" source="dw2K8p2eMYUvbzomziok-115" target="dw2K8p2eMYUvbzomziok-100">
          <mxGeometry relative="1" as="geometry" />
        </mxCell>
        <mxCell id="dw2K8p2eMYUvbzomziok-115" value="B" style="ellipse;whiteSpace=wrap;html=1;aspect=fixed;fillColor=#ffcd28;strokeColor=#d79b00;gradientColor=#ffa500;" vertex="1" parent="1">
          <mxGeometry x="4540" y="277.5" width="40" height="40" as="geometry" />
        </mxCell>
        <mxCell id="dw2K8p2eMYUvbzomziok-122" value="" style="edgeStyle=orthogonalEdgeStyle;rounded=0;orthogonalLoop=1;jettySize=auto;html=1;" edge="1" parent="1" source="dw2K8p2eMYUvbzomziok-121">
          <mxGeometry relative="1" as="geometry">
            <mxPoint x="4650" y="550" as="targetPoint" />
          </mxGeometry>
        </mxCell>
        <mxCell id="dw2K8p2eMYUvbzomziok-121" value="D" style="ellipse;whiteSpace=wrap;html=1;aspect=fixed;fillColor=#ffcd28;strokeColor=#d79b00;direction=south;gradientColor=#ffa500;" vertex="1" parent="1">
          <mxGeometry x="4540" y="530" width="40" height="40" as="geometry" />
        </mxCell>
        <mxCell id="dw2K8p2eMYUvbzomziok-127" value="" style="edgeStyle=orthogonalEdgeStyle;rounded=0;orthogonalLoop=1;jettySize=auto;html=1;" edge="1" parent="1" source="dw2K8p2eMYUvbzomziok-123" target="dw2K8p2eMYUvbzomziok-125">
          <mxGeometry relative="1" as="geometry" />
        </mxCell>
        <mxCell id="dw2K8p2eMYUvbzomziok-123" value="Masukan Nama Ibu" style="shape=parallelogram;perimeter=parallelogramPerimeter;whiteSpace=wrap;html=1;fixedSize=1;fillColor=#f5f5f5;fontColor=#333333;strokeColor=#666666;" vertex="1" parent="1">
          <mxGeometry x="4820" y="395" width="160" height="60" as="geometry" />
        </mxCell>
        <mxCell id="dw2K8p2eMYUvbzomziok-130" value="" style="edgeStyle=orthogonalEdgeStyle;rounded=0;orthogonalLoop=1;jettySize=auto;html=1;" edge="1" parent="1" source="dw2K8p2eMYUvbzomziok-125" target="dw2K8p2eMYUvbzomziok-128">
          <mxGeometry relative="1" as="geometry" />
        </mxCell>
        <mxCell id="dw2K8p2eMYUvbzomziok-125" value="Masukan Alamat Ibu" style="shape=parallelogram;perimeter=parallelogramPerimeter;whiteSpace=wrap;html=1;fixedSize=1;fillColor=#f5f5f5;fontColor=#333333;strokeColor=#666666;" vertex="1" parent="1">
          <mxGeometry x="5010" y="395" width="160" height="60" as="geometry" />
        </mxCell>
        <mxCell id="dw2K8p2eMYUvbzomziok-132" value="" style="edgeStyle=orthogonalEdgeStyle;rounded=0;orthogonalLoop=1;jettySize=auto;html=1;" edge="1" parent="1" source="dw2K8p2eMYUvbzomziok-128" target="dw2K8p2eMYUvbzomziok-131">
          <mxGeometry relative="1" as="geometry" />
        </mxCell>
        <mxCell id="dw2K8p2eMYUvbzomziok-128" value="Masukan No Telepon Ibu" style="shape=parallelogram;perimeter=parallelogramPerimeter;whiteSpace=wrap;html=1;fixedSize=1;fillColor=#f5f5f5;fontColor=#333333;strokeColor=#666666;" vertex="1" parent="1">
          <mxGeometry x="5210" y="395" width="160" height="60" as="geometry" />
        </mxCell>
        <mxCell id="dw2K8p2eMYUvbzomziok-145" value="" style="edgeStyle=orthogonalEdgeStyle;rounded=0;orthogonalLoop=1;jettySize=auto;html=1;" edge="1" parent="1" source="dw2K8p2eMYUvbzomziok-131" target="dw2K8p2eMYUvbzomziok-133">
          <mxGeometry relative="1" as="geometry" />
        </mxCell>
        <mxCell id="dw2K8p2eMYUvbzomziok-131" value="Pilih Pekerjaan Ibu" style="shape=parallelogram;perimeter=parallelogramPerimeter;whiteSpace=wrap;html=1;fixedSize=1;fillColor=#f5f5f5;fontColor=#333333;strokeColor=#666666;" vertex="1" parent="1">
          <mxGeometry x="5410" y="395" width="160" height="60" as="geometry" />
        </mxCell>
        <mxCell id="dw2K8p2eMYUvbzomziok-142" style="edgeStyle=orthogonalEdgeStyle;rounded=0;orthogonalLoop=1;jettySize=auto;html=1;exitX=0.5;exitY=1;exitDx=0;exitDy=0;entryX=0;entryY=0.5;entryDx=0;entryDy=0;" edge="1" parent="1" source="dw2K8p2eMYUvbzomziok-133" target="dw2K8p2eMYUvbzomziok-138">
          <mxGeometry relative="1" as="geometry">
            <Array as="points">
              <mxPoint x="5690" y="510" />
            </Array>
          </mxGeometry>
        </mxCell>
        <mxCell id="dw2K8p2eMYUvbzomziok-144" value="Tidak" style="edgeLabel;html=1;align=center;verticalAlign=middle;resizable=0;points=[];" vertex="1" connectable="0" parent="dw2K8p2eMYUvbzomziok-142">
          <mxGeometry x="-0.581" relative="1" as="geometry">
            <mxPoint as="offset" />
          </mxGeometry>
        </mxCell>
        <mxCell id="dw2K8p2eMYUvbzomziok-133" value="Apakah Ibu orang Indonesia?" style="rhombus;whiteSpace=wrap;html=1;fillColor=#fff2cc;strokeColor=#d6b656;" vertex="1" parent="1">
          <mxGeometry x="5650" y="385" width="80" height="80" as="geometry" />
        </mxCell>
        <mxCell id="dw2K8p2eMYUvbzomziok-134" value="" style="endArrow=classic;html=1;rounded=0;exitX=0.5;exitY=0;exitDx=0;exitDy=0;entryX=0.1;entryY=0.409;entryDx=0;entryDy=0;entryPerimeter=0;" edge="1" parent="1" source="dw2K8p2eMYUvbzomziok-133" target="dw2K8p2eMYUvbzomziok-136">
          <mxGeometry width="50" height="50" relative="1" as="geometry">
            <mxPoint x="5730" y="380" as="sourcePoint" />
            <mxPoint x="5690" y="340" as="targetPoint" />
            <Array as="points">
              <mxPoint x="5690" y="330" />
            </Array>
          </mxGeometry>
        </mxCell>
        <mxCell id="dw2K8p2eMYUvbzomziok-135" value="Ya" style="edgeLabel;html=1;align=center;verticalAlign=middle;resizable=0;points=[];" vertex="1" connectable="0" parent="dw2K8p2eMYUvbzomziok-134">
          <mxGeometry x="-0.2302" y="2" relative="1" as="geometry">
            <mxPoint as="offset" />
          </mxGeometry>
        </mxCell>
        <mxCell id="dw2K8p2eMYUvbzomziok-178" style="edgeStyle=orthogonalEdgeStyle;rounded=0;orthogonalLoop=1;jettySize=auto;html=1;exitX=1;exitY=0.5;exitDx=0;exitDy=0;entryX=0.5;entryY=0;entryDx=0;entryDy=0;" edge="1" parent="1" source="dw2K8p2eMYUvbzomziok-136" target="dw2K8p2eMYUvbzomziok-186">
          <mxGeometry relative="1" as="geometry">
            <mxPoint x="5907.5" y="398.75" as="targetPoint" />
          </mxGeometry>
        </mxCell>
        <mxCell id="dw2K8p2eMYUvbzomziok-136" value="Masukan NIK Ibu" style="shape=parallelogram;perimeter=parallelogramPerimeter;whiteSpace=wrap;html=1;fixedSize=1;fillColor=#f5f5f5;fontColor=#333333;strokeColor=#666666;" vertex="1" parent="1">
          <mxGeometry x="5730" y="305" width="120" height="60" as="geometry" />
        </mxCell>
        <mxCell id="dw2K8p2eMYUvbzomziok-179" style="edgeStyle=orthogonalEdgeStyle;rounded=0;orthogonalLoop=1;jettySize=auto;html=1;entryX=0.5;entryY=1;entryDx=0;entryDy=0;" edge="1" parent="1" source="dw2K8p2eMYUvbzomziok-138" target="dw2K8p2eMYUvbzomziok-186">
          <mxGeometry relative="1" as="geometry">
            <mxPoint x="5907.5" y="451.25" as="targetPoint" />
          </mxGeometry>
        </mxCell>
        <mxCell id="dw2K8p2eMYUvbzomziok-138" value="Masukan No. Kitas/Paspor Ibu" style="shape=parallelogram;perimeter=parallelogramPerimeter;whiteSpace=wrap;html=1;fixedSize=1;fillColor=#f5f5f5;fontColor=#333333;strokeColor=#666666;" vertex="1" parent="1">
          <mxGeometry x="5730" y="480" width="120" height="60" as="geometry" />
        </mxCell>
        <mxCell id="dw2K8p2eMYUvbzomziok-211" style="edgeStyle=orthogonalEdgeStyle;rounded=0;orthogonalLoop=1;jettySize=auto;html=1;exitX=0.5;exitY=1;exitDx=0;exitDy=0;entryX=0.5;entryY=0;entryDx=0;entryDy=0;" edge="1" parent="1" source="dw2K8p2eMYUvbzomziok-150" target="dw2K8p2eMYUvbzomziok-194">
          <mxGeometry relative="1" as="geometry" />
        </mxCell>
        <mxCell id="dw2K8p2eMYUvbzomziok-150" value="Masuk Ke Pertanyaan Seputar Wali" style="rounded=1;whiteSpace=wrap;html=1;fillColor=#dae8fc;strokeColor=#6c8ebf;" vertex="1" parent="1">
          <mxGeometry x="4820" y="520" width="120" height="60" as="geometry" />
        </mxCell>
        <mxCell id="dw2K8p2eMYUvbzomziok-153" value="" style="edgeStyle=orthogonalEdgeStyle;rounded=0;orthogonalLoop=1;jettySize=auto;html=1;" edge="1" parent="1" source="dw2K8p2eMYUvbzomziok-151" target="dw2K8p2eMYUvbzomziok-150">
          <mxGeometry relative="1" as="geometry" />
        </mxCell>
        <mxCell id="dw2K8p2eMYUvbzomziok-212" value="Ya" style="edgeLabel;html=1;align=center;verticalAlign=middle;resizable=0;points=[];" vertex="1" connectable="0" parent="dw2K8p2eMYUvbzomziok-153">
          <mxGeometry x="0.0815" y="-1" relative="1" as="geometry">
            <mxPoint as="offset" />
          </mxGeometry>
        </mxCell>
        <mxCell id="dw2K8p2eMYUvbzomziok-151" value="Ingin Isi Informasi Seputar Wali?" style="rhombus;whiteSpace=wrap;html=1;fillColor=#fff2cc;strokeColor=#d6b656;" vertex="1" parent="1">
          <mxGeometry x="4650" y="495" width="110" height="110" as="geometry" />
        </mxCell>
        <mxCell id="dw2K8p2eMYUvbzomziok-154" value="" style="edgeStyle=orthogonalEdgeStyle;rounded=0;orthogonalLoop=1;jettySize=auto;html=1;" edge="1" parent="1" source="dw2K8p2eMYUvbzomziok-155" target="dw2K8p2eMYUvbzomziok-157">
          <mxGeometry relative="1" as="geometry" />
        </mxCell>
        <mxCell id="dw2K8p2eMYUvbzomziok-155" value="Masukan Nama Ayah" style="shape=parallelogram;perimeter=parallelogramPerimeter;whiteSpace=wrap;html=1;fixedSize=1;fillColor=#f5f5f5;fontColor=#333333;strokeColor=#666666;" vertex="1" parent="1">
          <mxGeometry x="4840" y="140" width="160" height="60" as="geometry" />
        </mxCell>
        <mxCell id="dw2K8p2eMYUvbzomziok-156" value="" style="edgeStyle=orthogonalEdgeStyle;rounded=0;orthogonalLoop=1;jettySize=auto;html=1;" edge="1" parent="1" source="dw2K8p2eMYUvbzomziok-157" target="dw2K8p2eMYUvbzomziok-159">
          <mxGeometry relative="1" as="geometry" />
        </mxCell>
        <mxCell id="dw2K8p2eMYUvbzomziok-157" value="Masukan Alamat Ayah" style="shape=parallelogram;perimeter=parallelogramPerimeter;whiteSpace=wrap;html=1;fixedSize=1;fillColor=#f5f5f5;fontColor=#333333;strokeColor=#666666;" vertex="1" parent="1">
          <mxGeometry x="5030" y="140" width="160" height="60" as="geometry" />
        </mxCell>
        <mxCell id="dw2K8p2eMYUvbzomziok-158" value="" style="edgeStyle=orthogonalEdgeStyle;rounded=0;orthogonalLoop=1;jettySize=auto;html=1;" edge="1" parent="1" source="dw2K8p2eMYUvbzomziok-159" target="dw2K8p2eMYUvbzomziok-161">
          <mxGeometry relative="1" as="geometry" />
        </mxCell>
        <mxCell id="dw2K8p2eMYUvbzomziok-159" value="Masukan No Telepon Ayah" style="shape=parallelogram;perimeter=parallelogramPerimeter;whiteSpace=wrap;html=1;fixedSize=1;fillColor=#f5f5f5;fontColor=#333333;strokeColor=#666666;" vertex="1" parent="1">
          <mxGeometry x="5230" y="140" width="160" height="60" as="geometry" />
        </mxCell>
        <mxCell id="dw2K8p2eMYUvbzomziok-160" value="" style="edgeStyle=orthogonalEdgeStyle;rounded=0;orthogonalLoop=1;jettySize=auto;html=1;" edge="1" parent="1" source="dw2K8p2eMYUvbzomziok-161" target="dw2K8p2eMYUvbzomziok-164">
          <mxGeometry relative="1" as="geometry" />
        </mxCell>
        <mxCell id="dw2K8p2eMYUvbzomziok-161" value="Pilih Pekerjaan Ayah" style="shape=parallelogram;perimeter=parallelogramPerimeter;whiteSpace=wrap;html=1;fixedSize=1;fillColor=#f5f5f5;fontColor=#333333;strokeColor=#666666;" vertex="1" parent="1">
          <mxGeometry x="5430" y="140" width="160" height="60" as="geometry" />
        </mxCell>
        <mxCell id="dw2K8p2eMYUvbzomziok-162" style="edgeStyle=orthogonalEdgeStyle;rounded=0;orthogonalLoop=1;jettySize=auto;html=1;exitX=0.5;exitY=1;exitDx=0;exitDy=0;entryX=0;entryY=0.5;entryDx=0;entryDy=0;" edge="1" parent="1" source="dw2K8p2eMYUvbzomziok-164" target="dw2K8p2eMYUvbzomziok-168">
          <mxGeometry relative="1" as="geometry">
            <Array as="points">
              <mxPoint x="5710" y="255" />
            </Array>
          </mxGeometry>
        </mxCell>
        <mxCell id="dw2K8p2eMYUvbzomziok-163" value="Tidak" style="edgeLabel;html=1;align=center;verticalAlign=middle;resizable=0;points=[];" vertex="1" connectable="0" parent="dw2K8p2eMYUvbzomziok-162">
          <mxGeometry x="-0.581" relative="1" as="geometry">
            <mxPoint as="offset" />
          </mxGeometry>
        </mxCell>
        <mxCell id="dw2K8p2eMYUvbzomziok-164" value="Apakah Ayah orang Indonesia?" style="rhombus;whiteSpace=wrap;html=1;fillColor=#fff2cc;strokeColor=#d6b656;" vertex="1" parent="1">
          <mxGeometry x="5670" y="130" width="80" height="80" as="geometry" />
        </mxCell>
        <mxCell id="dw2K8p2eMYUvbzomziok-165" value="" style="endArrow=classic;html=1;rounded=0;exitX=0.5;exitY=0;exitDx=0;exitDy=0;entryX=0.1;entryY=0.409;entryDx=0;entryDy=0;entryPerimeter=0;" edge="1" parent="1" source="dw2K8p2eMYUvbzomziok-164" target="dw2K8p2eMYUvbzomziok-167">
          <mxGeometry width="50" height="50" relative="1" as="geometry">
            <mxPoint x="5750" y="125" as="sourcePoint" />
            <mxPoint x="5710" y="85" as="targetPoint" />
            <Array as="points">
              <mxPoint x="5710" y="75" />
            </Array>
          </mxGeometry>
        </mxCell>
        <mxCell id="dw2K8p2eMYUvbzomziok-166" value="Ya" style="edgeLabel;html=1;align=center;verticalAlign=middle;resizable=0;points=[];" vertex="1" connectable="0" parent="dw2K8p2eMYUvbzomziok-165">
          <mxGeometry x="-0.2302" y="2" relative="1" as="geometry">
            <mxPoint as="offset" />
          </mxGeometry>
        </mxCell>
        <mxCell id="dw2K8p2eMYUvbzomziok-173" style="edgeStyle=orthogonalEdgeStyle;rounded=0;orthogonalLoop=1;jettySize=auto;html=1;exitX=1;exitY=0.5;exitDx=0;exitDy=0;entryX=0.5;entryY=0;entryDx=0;entryDy=0;" edge="1" parent="1" source="dw2K8p2eMYUvbzomziok-167" target="dw2K8p2eMYUvbzomziok-228">
          <mxGeometry relative="1" as="geometry">
            <mxPoint x="5920" y="150" as="targetPoint" />
          </mxGeometry>
        </mxCell>
        <mxCell id="dw2K8p2eMYUvbzomziok-167" value="Masukan NIK Ayah" style="shape=parallelogram;perimeter=parallelogramPerimeter;whiteSpace=wrap;html=1;fixedSize=1;fillColor=#f5f5f5;fontColor=#333333;strokeColor=#666666;" vertex="1" parent="1">
          <mxGeometry x="5750" y="50" width="120" height="60" as="geometry" />
        </mxCell>
        <mxCell id="dw2K8p2eMYUvbzomziok-174" style="edgeStyle=orthogonalEdgeStyle;rounded=0;orthogonalLoop=1;jettySize=auto;html=1;exitX=1;exitY=0.5;exitDx=0;exitDy=0;entryX=0.5;entryY=1;entryDx=0;entryDy=0;" edge="1" parent="1" source="dw2K8p2eMYUvbzomziok-168" target="dw2K8p2eMYUvbzomziok-228">
          <mxGeometry relative="1" as="geometry">
            <mxPoint x="5920" y="190" as="targetPoint" />
          </mxGeometry>
        </mxCell>
        <mxCell id="dw2K8p2eMYUvbzomziok-168" value="Masukan No. Kitas/Paspor Ayah" style="shape=parallelogram;perimeter=parallelogramPerimeter;whiteSpace=wrap;html=1;fixedSize=1;fillColor=#f5f5f5;fontColor=#333333;strokeColor=#666666;" vertex="1" parent="1">
          <mxGeometry x="5750" y="225" width="120" height="60" as="geometry" />
        </mxCell>
        <mxCell id="dw2K8p2eMYUvbzomziok-175" value="D" style="ellipse;whiteSpace=wrap;html=1;aspect=fixed;fillColor=#e1d5e7;strokeColor=#9673a6;" vertex="1" parent="1">
          <mxGeometry x="6150" y="407.5" width="40" height="40" as="geometry" />
        </mxCell>
        <mxCell id="dw2K8p2eMYUvbzomziok-182" value="" style="edgeStyle=orthogonalEdgeStyle;rounded=0;orthogonalLoop=1;jettySize=auto;html=1;" edge="1" parent="1" target="dw2K8p2eMYUvbzomziok-181">
          <mxGeometry relative="1" as="geometry">
            <mxPoint x="6050" y="447.5" as="sourcePoint" />
          </mxGeometry>
        </mxCell>
        <mxCell id="dw2K8p2eMYUvbzomziok-191" value="True" style="edgeLabel;html=1;align=center;verticalAlign=middle;resizable=0;points=[];" vertex="1" connectable="0" parent="dw2K8p2eMYUvbzomziok-182">
          <mxGeometry x="-0.2442" y="1" relative="1" as="geometry">
            <mxPoint x="-1" y="3" as="offset" />
          </mxGeometry>
        </mxCell>
        <mxCell id="dw2K8p2eMYUvbzomziok-184" value="" style="edgeStyle=orthogonalEdgeStyle;rounded=0;orthogonalLoop=1;jettySize=auto;html=1;" edge="1" parent="1" target="dw2K8p2eMYUvbzomziok-175">
          <mxGeometry relative="1" as="geometry">
            <mxPoint x="6070" y="427.5" as="sourcePoint" />
          </mxGeometry>
        </mxCell>
        <mxCell id="dw2K8p2eMYUvbzomziok-192" value="False" style="edgeLabel;html=1;align=center;verticalAlign=middle;resizable=0;points=[];" vertex="1" connectable="0" parent="dw2K8p2eMYUvbzomziok-184">
          <mxGeometry x="-0.2559" y="-1" relative="1" as="geometry">
            <mxPoint x="10" y="-1" as="offset" />
          </mxGeometry>
        </mxCell>
        <mxCell id="dw2K8p2eMYUvbzomziok-181" value="Selesai" style="ellipse;whiteSpace=wrap;html=1;fillColor=#d5e8d4;strokeColor=#82b366;" vertex="1" parent="1">
          <mxGeometry x="6005" y="520" width="90" height="50" as="geometry" />
        </mxCell>
        <mxCell id="dw2K8p2eMYUvbzomziok-188" value="" style="edgeStyle=orthogonalEdgeStyle;rounded=0;orthogonalLoop=1;jettySize=auto;html=1;" edge="1" parent="1" source="dw2K8p2eMYUvbzomziok-186" target="dw2K8p2eMYUvbzomziok-187">
          <mxGeometry relative="1" as="geometry" />
        </mxCell>
        <mxCell id="dw2K8p2eMYUvbzomziok-186" value="Apakah Yang Mendaftarkan Merupakan Wali?" style="rounded=1;whiteSpace=wrap;html=1;fillColor=#dae8fc;strokeColor=#6c8ebf;" vertex="1" parent="1">
          <mxGeometry x="5880" y="395" width="120" height="60" as="geometry" />
        </mxCell>
        <mxCell id="dw2K8p2eMYUvbzomziok-187" value="" style="rhombus;whiteSpace=wrap;html=1;fillColor=#fff2cc;strokeColor=#d6b656;" vertex="1" parent="1">
          <mxGeometry x="6030" y="402.5" width="40" height="45" as="geometry" />
        </mxCell>
        <mxCell id="dw2K8p2eMYUvbzomziok-193" value="" style="edgeStyle=orthogonalEdgeStyle;rounded=0;orthogonalLoop=1;jettySize=auto;html=1;" edge="1" parent="1" source="dw2K8p2eMYUvbzomziok-194" target="dw2K8p2eMYUvbzomziok-196">
          <mxGeometry relative="1" as="geometry" />
        </mxCell>
        <mxCell id="dw2K8p2eMYUvbzomziok-194" value="Masukan Nama Wali" style="shape=parallelogram;perimeter=parallelogramPerimeter;whiteSpace=wrap;html=1;fixedSize=1;fillColor=#f5f5f5;fontColor=#333333;strokeColor=#666666;" vertex="1" parent="1">
          <mxGeometry x="4800" y="710" width="160" height="60" as="geometry" />
        </mxCell>
        <mxCell id="dw2K8p2eMYUvbzomziok-195" value="" style="edgeStyle=orthogonalEdgeStyle;rounded=0;orthogonalLoop=1;jettySize=auto;html=1;" edge="1" parent="1" source="dw2K8p2eMYUvbzomziok-196" target="dw2K8p2eMYUvbzomziok-198">
          <mxGeometry relative="1" as="geometry" />
        </mxCell>
        <mxCell id="dw2K8p2eMYUvbzomziok-196" value="Masukan Alamat Wali" style="shape=parallelogram;perimeter=parallelogramPerimeter;whiteSpace=wrap;html=1;fixedSize=1;fillColor=#f5f5f5;fontColor=#333333;strokeColor=#666666;" vertex="1" parent="1">
          <mxGeometry x="4990" y="710" width="160" height="60" as="geometry" />
        </mxCell>
        <mxCell id="dw2K8p2eMYUvbzomziok-197" value="" style="edgeStyle=orthogonalEdgeStyle;rounded=0;orthogonalLoop=1;jettySize=auto;html=1;" edge="1" parent="1" source="dw2K8p2eMYUvbzomziok-198" target="dw2K8p2eMYUvbzomziok-200">
          <mxGeometry relative="1" as="geometry" />
        </mxCell>
        <mxCell id="dw2K8p2eMYUvbzomziok-198" value="Masukan No Telepon Wali" style="shape=parallelogram;perimeter=parallelogramPerimeter;whiteSpace=wrap;html=1;fixedSize=1;fillColor=#f5f5f5;fontColor=#333333;strokeColor=#666666;" vertex="1" parent="1">
          <mxGeometry x="5190" y="710" width="160" height="60" as="geometry" />
        </mxCell>
        <mxCell id="dw2K8p2eMYUvbzomziok-199" value="" style="edgeStyle=orthogonalEdgeStyle;rounded=0;orthogonalLoop=1;jettySize=auto;html=1;" edge="1" parent="1" source="dw2K8p2eMYUvbzomziok-200" target="dw2K8p2eMYUvbzomziok-203">
          <mxGeometry relative="1" as="geometry" />
        </mxCell>
        <mxCell id="dw2K8p2eMYUvbzomziok-200" value="Pilih Pekerjaan Wali" style="shape=parallelogram;perimeter=parallelogramPerimeter;whiteSpace=wrap;html=1;fixedSize=1;fillColor=#f5f5f5;fontColor=#333333;strokeColor=#666666;" vertex="1" parent="1">
          <mxGeometry x="5390" y="710" width="160" height="60" as="geometry" />
        </mxCell>
        <mxCell id="dw2K8p2eMYUvbzomziok-201" style="edgeStyle=orthogonalEdgeStyle;rounded=0;orthogonalLoop=1;jettySize=auto;html=1;exitX=0.5;exitY=1;exitDx=0;exitDy=0;entryX=0;entryY=0.5;entryDx=0;entryDy=0;" edge="1" parent="1" source="dw2K8p2eMYUvbzomziok-203" target="dw2K8p2eMYUvbzomziok-209">
          <mxGeometry relative="1" as="geometry">
            <Array as="points">
              <mxPoint x="5670" y="825" />
            </Array>
          </mxGeometry>
        </mxCell>
        <mxCell id="dw2K8p2eMYUvbzomziok-202" value="Tidak" style="edgeLabel;html=1;align=center;verticalAlign=middle;resizable=0;points=[];" vertex="1" connectable="0" parent="dw2K8p2eMYUvbzomziok-201">
          <mxGeometry x="-0.581" relative="1" as="geometry">
            <mxPoint as="offset" />
          </mxGeometry>
        </mxCell>
        <mxCell id="dw2K8p2eMYUvbzomziok-203" value="Apakah Wali orang Indonesia?" style="rhombus;whiteSpace=wrap;html=1;fillColor=#fff2cc;strokeColor=#d6b656;" vertex="1" parent="1">
          <mxGeometry x="5630" y="700" width="80" height="80" as="geometry" />
        </mxCell>
        <mxCell id="dw2K8p2eMYUvbzomziok-204" value="" style="endArrow=classic;html=1;rounded=0;exitX=0.5;exitY=0;exitDx=0;exitDy=0;entryX=0.1;entryY=0.409;entryDx=0;entryDy=0;entryPerimeter=0;" edge="1" parent="1" source="dw2K8p2eMYUvbzomziok-203" target="dw2K8p2eMYUvbzomziok-207">
          <mxGeometry width="50" height="50" relative="1" as="geometry">
            <mxPoint x="5710" y="695" as="sourcePoint" />
            <mxPoint x="5670" y="655" as="targetPoint" />
            <Array as="points">
              <mxPoint x="5670" y="645" />
            </Array>
          </mxGeometry>
        </mxCell>
        <mxCell id="dw2K8p2eMYUvbzomziok-205" value="Ya" style="edgeLabel;html=1;align=center;verticalAlign=middle;resizable=0;points=[];" vertex="1" connectable="0" parent="dw2K8p2eMYUvbzomziok-204">
          <mxGeometry x="-0.2302" y="2" relative="1" as="geometry">
            <mxPoint as="offset" />
          </mxGeometry>
        </mxCell>
        <mxCell id="dw2K8p2eMYUvbzomziok-206" style="edgeStyle=orthogonalEdgeStyle;rounded=0;orthogonalLoop=1;jettySize=auto;html=1;exitX=1;exitY=0.5;exitDx=0;exitDy=0;entryX=0.5;entryY=0;entryDx=0;entryDy=0;" edge="1" parent="1" source="dw2K8p2eMYUvbzomziok-207" target="dw2K8p2eMYUvbzomziok-217">
          <mxGeometry relative="1" as="geometry">
            <mxPoint x="5880" y="720" as="targetPoint" />
          </mxGeometry>
        </mxCell>
        <mxCell id="dw2K8p2eMYUvbzomziok-207" value="Masukan NIK Wali" style="shape=parallelogram;perimeter=parallelogramPerimeter;whiteSpace=wrap;html=1;fixedSize=1;fillColor=#f5f5f5;fontColor=#333333;strokeColor=#666666;" vertex="1" parent="1">
          <mxGeometry x="5710" y="620" width="120" height="60" as="geometry" />
        </mxCell>
        <mxCell id="dw2K8p2eMYUvbzomziok-208" style="edgeStyle=orthogonalEdgeStyle;rounded=0;orthogonalLoop=1;jettySize=auto;html=1;exitX=1;exitY=0.5;exitDx=0;exitDy=0;entryX=0.5;entryY=1;entryDx=0;entryDy=0;" edge="1" parent="1" source="dw2K8p2eMYUvbzomziok-209" target="dw2K8p2eMYUvbzomziok-217">
          <mxGeometry relative="1" as="geometry">
            <mxPoint x="5880" y="760" as="targetPoint" />
          </mxGeometry>
        </mxCell>
        <mxCell id="dw2K8p2eMYUvbzomziok-209" value="Masukan No. Kitas/Paspor Wali" style="shape=parallelogram;perimeter=parallelogramPerimeter;whiteSpace=wrap;html=1;fixedSize=1;fillColor=#f5f5f5;fontColor=#333333;strokeColor=#666666;" vertex="1" parent="1">
          <mxGeometry x="5710" y="795" width="120" height="60" as="geometry" />
        </mxCell>
        <mxCell id="dw2K8p2eMYUvbzomziok-213" value="" style="edgeStyle=orthogonalEdgeStyle;rounded=0;orthogonalLoop=1;jettySize=auto;html=1;" edge="1" parent="1" target="dw2K8p2eMYUvbzomziok-215">
          <mxGeometry relative="1" as="geometry">
            <mxPoint x="4705" y="605" as="sourcePoint" />
          </mxGeometry>
        </mxCell>
        <mxCell id="dw2K8p2eMYUvbzomziok-214" value="Tidak" style="edgeLabel;html=1;align=center;verticalAlign=middle;resizable=0;points=[];" vertex="1" connectable="0" parent="dw2K8p2eMYUvbzomziok-213">
          <mxGeometry x="-0.2442" y="1" relative="1" as="geometry">
            <mxPoint x="-1" y="3" as="offset" />
          </mxGeometry>
        </mxCell>
        <mxCell id="dw2K8p2eMYUvbzomziok-215" value="Selesai" style="ellipse;whiteSpace=wrap;html=1;fillColor=#d5e8d4;strokeColor=#82b366;" vertex="1" parent="1">
          <mxGeometry x="4660" y="680" width="90" height="50" as="geometry" />
        </mxCell>
        <mxCell id="dw2K8p2eMYUvbzomziok-217" value="Selesai" style="ellipse;whiteSpace=wrap;html=1;fillColor=#d5e8d4;strokeColor=#82b366;" vertex="1" parent="1">
          <mxGeometry x="5840" y="715" width="90" height="50" as="geometry" />
        </mxCell>
        <mxCell id="dw2K8p2eMYUvbzomziok-218" value="B" style="ellipse;whiteSpace=wrap;html=1;aspect=fixed;fillColor=#ffcd28;strokeColor=#d79b00;gradientColor=#ffa500;" vertex="1" parent="1">
          <mxGeometry x="4215" y="287.5" width="40" height="40" as="geometry" />
        </mxCell>
        <mxCell id="dw2K8p2eMYUvbzomziok-221" value="C" style="ellipse;whiteSpace=wrap;html=1;aspect=fixed;fillColor=#e1d5e7;strokeColor=#9673a6;" vertex="1" parent="1">
          <mxGeometry x="6150" y="147.5" width="40" height="40" as="geometry" />
        </mxCell>
        <mxCell id="dw2K8p2eMYUvbzomziok-222" value="" style="edgeStyle=orthogonalEdgeStyle;rounded=0;orthogonalLoop=1;jettySize=auto;html=1;entryX=0.5;entryY=0;entryDx=0;entryDy=0;" edge="1" parent="1" target="dw2K8p2eMYUvbzomziok-230">
          <mxGeometry relative="1" as="geometry">
            <mxPoint x="6050" y="187.5" as="sourcePoint" />
            <mxPoint x="6050" y="260" as="targetPoint" />
          </mxGeometry>
        </mxCell>
        <mxCell id="dw2K8p2eMYUvbzomziok-223" value="True" style="edgeLabel;html=1;align=center;verticalAlign=middle;resizable=0;points=[];" vertex="1" connectable="0" parent="dw2K8p2eMYUvbzomziok-222">
          <mxGeometry x="-0.2442" y="1" relative="1" as="geometry">
            <mxPoint x="-1" y="3" as="offset" />
          </mxGeometry>
        </mxCell>
        <mxCell id="dw2K8p2eMYUvbzomziok-224" value="" style="edgeStyle=orthogonalEdgeStyle;rounded=0;orthogonalLoop=1;jettySize=auto;html=1;" edge="1" parent="1" target="dw2K8p2eMYUvbzomziok-221">
          <mxGeometry relative="1" as="geometry">
            <mxPoint x="6070" y="167.5" as="sourcePoint" />
          </mxGeometry>
        </mxCell>
        <mxCell id="dw2K8p2eMYUvbzomziok-225" value="False" style="edgeLabel;html=1;align=center;verticalAlign=middle;resizable=0;points=[];" vertex="1" connectable="0" parent="dw2K8p2eMYUvbzomziok-224">
          <mxGeometry x="-0.2559" y="-1" relative="1" as="geometry">
            <mxPoint x="10" y="-1" as="offset" />
          </mxGeometry>
        </mxCell>
        <mxCell id="dw2K8p2eMYUvbzomziok-227" value="" style="edgeStyle=orthogonalEdgeStyle;rounded=0;orthogonalLoop=1;jettySize=auto;html=1;" edge="1" parent="1" source="dw2K8p2eMYUvbzomziok-228" target="dw2K8p2eMYUvbzomziok-229">
          <mxGeometry relative="1" as="geometry" />
        </mxCell>
        <mxCell id="dw2K8p2eMYUvbzomziok-228" value="Apakah Yang Mendaftarkan Merupakan Ortu?" style="rounded=1;whiteSpace=wrap;html=1;fillColor=#dae8fc;strokeColor=#6c8ebf;" vertex="1" parent="1">
          <mxGeometry x="5880" y="135" width="120" height="60" as="geometry" />
        </mxCell>
        <mxCell id="dw2K8p2eMYUvbzomziok-229" value="" style="rhombus;whiteSpace=wrap;html=1;fillColor=#fff2cc;strokeColor=#d6b656;" vertex="1" parent="1">
          <mxGeometry x="6030" y="142.5" width="40" height="45" as="geometry" />
        </mxCell>
        <mxCell id="dw2K8p2eMYUvbzomziok-230" value="D" style="ellipse;whiteSpace=wrap;html=1;aspect=fixed;fillColor=#e1d5e7;strokeColor=#9673a6;" vertex="1" parent="1">
          <mxGeometry x="6030" y="255" width="40" height="40" as="geometry" />
        </mxCell>
      </root>
    </mxGraphModel>
  </diagram>
</mxfile>
